mtllib material.mtl
o Default
v 1.5 0 -1.5
v 1.5 1 -1.5
v -1.5 1 -1.5
v -1.5 0 -1.5
v -1.5 1 1.5
v -1.5 0 1.5
v 1.5 0 1.5
v 1.5 1 1.5
v -0.5 0 0.5
v 0.5 0 0.5
v 0.5 0 -0.5
v -0.5 0 -0.5
v 1.5 0 -0.5
v 0.5 0 -1.5
v 0.5 0 1.5
v 1.5 0 0.5
v -0.5 0 1.5
v -1.5 0 0.5
v -1.5 0 -0.5
v -0.5 0 -1.5
v -1.5 2 1.5
v 1.5 2 1.5
v 1.5 2 -1.5
v -1.5 2 -1.5
v -1.5 2 1.5
v -1.5 2 -1.5
vt 0.7058823529411765 0.8333333333333334
vt 0.8823529411764706 0.9166666666666666
vt 0.7058823529411765 0.9166666666666666
vt 0.7058823529411765 0.8333333333333334
vt 0.8823529411764706 0.8333333333333334
vt 0.8823529411764706 0.9166666666666666
vt 0.17647058823529413 0.8333333333333334
vt 0.35294117647058826 0.9166666666666666
vt 0.17647058823529413 0.9166666666666666
vt 0.17647058823529413 0.8333333333333334
vt 0.35294117647058826 0.8333333333333334
vt 0.35294117647058826 0.9166666666666666
vt 0.5294117647058824 0.8333333333333334
vt 0.7058823529411765 0.9166666666666666
vt 0.5294117647058824 0.9166666666666666
vt 0.5294117647058824 0.8333333333333334
vt 0.7058823529411765 0.8333333333333334
vt 0.7058823529411765 0.9166666666666666
vt 0.35294117647058826 0.8333333333333334
vt 0.5294117647058824 0.9166666666666666
vt 0.35294117647058826 0.9166666666666666
vt 0.35294117647058826 0.8333333333333334
vt 0.5294117647058824 0.8333333333333334
vt 0.5294117647058824 0.9166666666666666
vt 0 0.25
vt 0.058823529411764705 0.33333333333333337
vt 0 0.33333333333333337
vt 0 0.25
vt 0.058823529411764705 0.25
vt 0.058823529411764705 0.33333333333333337
vt 0 0.25
vt 0.058823529411764705 0.33333333333333337
vt 0 0.33333333333333337
vt 0 0.25
vt 0.058823529411764705 0.25
vt 0.058823529411764705 0.33333333333333337
vt 0 0.25
vt 0.058823529411764705 0.33333333333333337
vt 0 0.33333333333333337
vt 0 0.25
vt 0.058823529411764705 0.25
vt 0.058823529411764705 0.33333333333333337
vt 0 0.25
vt 0.058823529411764705 0.33333333333333337
vt 0 0.33333333333333337
vt 0 0.25
vt 0.058823529411764705 0.25
vt 0.058823529411764705 0.33333333333333337
vt 0 0.25
vt 0.058823529411764705 0.33333333333333337
vt 0 0.33333333333333337
vt 0 0.25
vt 0.058823529411764705 0.25
vt 0.058823529411764705 0.33333333333333337
vt 0.058823529411764705 0.25
vt 0.11764705882352941 0.33333333333333337
vt 0.058823529411764705 0.33333333333333337
vt 0.058823529411764705 0.25
vt 0.11764705882352941 0.25
vt 0.11764705882352941 0.33333333333333337
vt 0.058823529411764705 0.25
vt 0.11764705882352941 0.33333333333333337
vt 0.058823529411764705 0.33333333333333337
vt 0.058823529411764705 0.25
vt 0.11764705882352941 0.25
vt 0.11764705882352941 0.33333333333333337
vt 0.058823529411764705 0.25
vt 0.11764705882352941 0.33333333333333337
vt 0.058823529411764705 0.33333333333333337
vt 0.058823529411764705 0.25
vt 0.11764705882352941 0.25
vt 0.11764705882352941 0.33333333333333337
vt 0.058823529411764705 0.25
vt 0.11764705882352941 0.33333333333333337
vt 0.058823529411764705 0.33333333333333337
vt 0.058823529411764705 0.25
vt 0.11764705882352941 0.25
vt 0.11764705882352941 0.33333333333333337
vt 0.35294117647058826 0.9166666666666666
vt 0.5294117647058824 1
vt 0.35294117647058826 1
vt 0.35294117647058826 0.9166666666666666
vt 0.5294117647058824 0.9166666666666666
vt 0.5294117647058824 1
vt 0.5294117647058824 0.9166666666666666
vt 0.7058823529411765 1
vt 0.5294117647058824 1
vt 0.5294117647058824 0.9166666666666666
vt 0.7058823529411765 0.9166666666666666
vt 0.7058823529411765 1
vt 0.7058823529411765 0.9166666666666666
vt 0.8823529411764706 1
vt 0.7058823529411765 1
vt 0.7058823529411765 0.9166666666666666
vt 0.8823529411764706 0.9166666666666666
vt 0.8823529411764706 1
vt 0.17647058823529413 0.9166666666666666
vt 0.35294117647058826 1
vt 0.17647058823529413 1
vt 0.17647058823529413 0.9166666666666666
vt 0.35294117647058826 0.9166666666666666
vt 0.35294117647058826 1
vt 0 0.75
vt 0.17647058823529413 1
vt 0 1
vt 0 0.75
vt 0.17647058823529413 0.75
vt 0.17647058823529413 1
vn 0.3333592576077853 -0.6666851817904015 -0.6666351879013631
vn -0.7071067811865476 -1.0467283057891835e-16 -0.7071067811865476
vn 0.7071067811865476 -1.0467283057891835e-16 -0.7071067811865476
vn 0.3333592576077853 -0.6666851817904015 -0.6666351879013631
vn -0.8164829739271273 -0.40825169121484667 -0.4082721027786878
vn -0.7071067811865476 -1.0467283057891835e-16 -0.7071067811865476
vn -0.8164829739271273 -0.40825169121484667 -0.4082721027786878
vn -0.7071067811865476 -1.0467283057891835e-16 0.7071067811865476
vn -0.7071067811865476 -1.0467283057891835e-16 -0.7071067811865476
vn -0.8164829739271273 -0.40825169121484667 -0.4082721027786878
vn -0.33330741094122096 -0.6666481484571295 0.6666981445679455
vn -0.7071067811865476 -1.0467283057891835e-16 0.7071067811865476
vn 0.8165101877582552 -0.4082448877570809 0.4082244785742117
vn 0.7071067811865476 -1.0467283057891835e-16 -0.7071067811865476
vn 0.7071067811865476 -1.0467283057891835e-16 0.7071067811865476
vn 0.8165101877582552 -0.4082448877570809 0.4082244785742117
vn 0.3333592576077853 -0.6666851817904015 -0.6666351879013631
vn 0.7071067811865476 -1.0467283057891835e-16 -0.7071067811865476
vn -0.33330741094122096 -0.6666481484571295 0.6666981445679455
vn 0.7071067811865476 -1.0467283057891835e-16 0.7071067811865476
vn -0.7071067811865476 -1.0467283057891835e-16 0.7071067811865476
vn -0.33330741094122096 -0.6666481484571295 0.6666981445679455
vn 0.8165101877582552 -0.4082448877570809 0.4082244785742117
vn 0.7071067811865476 -1.0467283057891835e-16 0.7071067811865476
vn 0.000058327499890993006 -0.9999999974310695 0.00004166249976443191
vn 0.000058327499890993006 -0.9999999974310695 0.000041662499764431914
vn 0.00001666500004670936 -0.9999999997222779 -0.000016665000130026033
vn 0.000058327499890993006 -0.9999999974310695 0.00004166249976443191
vn 0.000016665000046709368 -0.9999999997222779 -0.000016665000130026036
vn 0.000058327499890993006 -0.9999999974310695 0.000041662499764431914
vn 0.000058327499890993006 -0.9999999974310695 0.000041662499764431914
vn 0.3333592576077853 -0.6666851817904015 -0.6666351879013631
vn 0 -0.999999999861139 0.000016665000035138763
vn 0.000058327499890993006 -0.9999999974310695 0.000041662499764431914
vn 0.000016665000039762837 -0.9999999993056946 0.00003333000016284235
vn 0.3333592576077853 -0.6666851817904015 -0.6666351879013631
vn -0.000016664999755126015 -0.9999999963896111 -0.00008332499994197181
vn 0.000016665000069854733 -0.9999999986113888 -0.00004999500004293919
vn 0.8165101877582552 -0.4082448877570809 0.4082244785742117
vn -0.000016664999755126015 -0.9999999963896111 -0.00008332499994197181
vn 0.00001666500004670936 -0.9999999997222779 -0.000016665000130026033
vn 0.000016665000069854733 -0.9999999986113888 -0.00004999500004293919
vn -0.33330741094122096 -0.6666481484571295 0.6666981445679455
vn 0.000058327499890993006 -0.9999999974310695 0.00004166249976443191
vn 0.000016665000039762848 -0.9999999993056946 0.00003333000016284234
vn -0.33330741094122096 -0.6666481484571295 0.6666981445679455
vn 0 -0.999999999861139 0.000016665000035138763
vn 0.000058327499890993006 -0.9999999974310695 0.00004166249976443191
vn 0.000016665000069854733 -0.9999999986113888 -0.00004999500004293919
vn -0.000016664999755126015 -0.9999999963896111 -0.00008332499994197181
vn 0.000016665000046709368 -0.9999999997222779 -0.000016665000130026036
vn 0.000016665000069854733 -0.9999999986113888 -0.00004999500004293919
vn -0.8164829739271273 -0.40825169121484667 -0.4082721027786878
vn -0.000016664999755126015 -0.9999999963896111 -0.00008332499994197181
vn 0.000016665000046709368 -0.9999999997222779 -0.000016665000130026036
vn 0.000016665000039762837 -0.9999999993056946 0.00003333000016284235
vn 0.000058327499890993006 -0.9999999974310695 0.000041662499764431914
vn 0.000016665000046709368 -0.9999999997222779 -0.000016665000130026036
vn -0.000016664999755126015 -0.9999999963896111 -0.00008332499994197181
vn 0.000016665000039762837 -0.9999999993056946 0.00003333000016284235
vn 0.00001666500004670936 -0.9999999997222779 -0.000016665000130026033
vn 0 -0.999999999861139 0.000016665000035138763
vn 0.000016665000069854733 -0.9999999986113888 -0.00004999500004293919
vn 0.00001666500004670936 -0.9999999997222779 -0.000016665000130026033
vn 0.000058327499890993006 -0.9999999974310695 0.000041662499764431914
vn 0 -0.999999999861139 0.000016665000035138763
vn 0.000016665000039762848 -0.9999999993056946 0.00003333000016284234
vn 0.00001666500004670936 -0.9999999997222779 -0.000016665000130026033
vn -0.000016664999755126015 -0.9999999963896111 -0.00008332499994197181
vn 0.000016665000039762848 -0.9999999993056946 0.00003333000016284234
vn 0.000058327499890993006 -0.9999999974310695 0.00004166249976443191
vn 0.00001666500004670936 -0.9999999997222779 -0.000016665000130026033
vn 0 -0.999999999861139 0.000016665000035138763
vn 0.000016665000046709368 -0.9999999997222779 -0.000016665000130026036
vn 0.000058327499890993006 -0.9999999974310695 0.00004166249976443191
vn 0 -0.999999999861139 0.000016665000035138763
vn 0.000016665000069854733 -0.9999999986113888 -0.00004999500004293919
vn 0.000016665000046709368 -0.9999999997222779 -0.000016665000130026036
vn -0.7071067811865476 -1.0467283057891835e-16 0.7071067811865476
vn 0.33338271025389626 0.6666543202508567 0.6666543225650268
vn -0.8944271909999159 -1.9860273225978183e-16 0.44721359549995804
vn -0.7071067811865476 -1.0467283057891835e-16 0.7071067811865476
vn 0.7071067811865476 -1.0467283057891835e-16 0.7071067811865476
vn 0.33338271025389626 0.6666543202508567 0.6666543225650268
vn 0.7071067811865476 -1.0467283057891835e-16 0.7071067811865476
vn 0.8165079200239376 0.4082369504228342 -0.40823695184004016
vn 0.33338271025389626 0.6666543202508567 0.6666543225650268
vn 0.7071067811865476 -1.0467283057891835e-16 0.7071067811865476
vn 0.7071067811865476 -1.0467283057891835e-16 -0.7071067811865476
vn 0.8165079200239376 0.4082369504228342 -0.40823695184004016
vn 0.7071067811865476 -1.0467283057891835e-16 -0.7071067811865476
vn -0.4472135954999579 0 -0.8944271909999159
vn 0.8165079200239376 0.4082369504228342 -0.40823695184004016
vn 0.7071067811865476 -1.0467283057891835e-16 -0.7071067811865476
vn -0.7071067811865476 -1.0467283057891835e-16 -0.7071067811865476
vn -0.4472135954999579 0 -0.8944271909999159
vn -0.7071067811865476 -1.0467283057891835e-16 -0.7071067811865476
vn -0.8944271909999159 -1.9860273225978183e-16 0.44721359549995804
vn -0.4472135954999579 0 -0.8944271909999159
vn -0.7071067811865476 -1.0467283057891835e-16 -0.7071067811865476
vn -0.7071067811865476 -1.0467283057891835e-16 0.7071067811865476
vn -0.8944271909999159 -1.9860273225978183e-16 0.44721359549995804
vn 0.33338271025389626 0.6666543202508567 0.6666543225650268
vn 0.00008332499982856185 0.9999999965284723 -2.0829165338962336e-13
vn 0.00008332500003685352 0.9999999965284722 -4.165833191138245e-13
vn 0.33338271025389626 0.6666543202508567 0.6666543225650268
vn 0.8165079200239376 0.4082369504228342 -0.40823695184004016
vn 0.00008332499982856185 0.9999999965284723 -2.0829165338962336e-13
g Scene
f 1/1/1 3/2/2 2/3/3
f 1/4/4 4/5/5 3/6/6
f 4/7/7 5/8/8 3/9/9
f 4/10/10 6/11/11 5/12/12
f 7/13/13 2/14/14 8/15/15
f 7/16/16 1/17/17 2/18/18
f 6/19/19 8/20/20 5/21/21
f 6/22/22 7/23/23 8/24/24
f 9/25/25 11/26/26 10/27/27
f 9/28/28 12/29/29 11/30/30
f 11/31/31 1/32/32 13/33/33
f 11/34/34 14/35/35 1/36/36
f 15/37/37 16/38/38 7/39/39
f 15/40/40 10/41/41 16/42/42
f 6/43/43 9/44/44 17/45/45
f 6/46/46 18/47/47 9/48/48
f 19/49/49 20/50/50 12/51/51
f 19/52/52 4/53/53 20/54/54
f 12/55/55 14/56/56 11/57/57
f 12/58/58 20/59/59 14/60/60
f 10/61/61 13/62/62 16/63/63
f 10/64/64 11/65/65 13/66/66
f 17/67/67 10/68/68 15/69/69
f 17/70/70 9/71/71 10/72/72
f 18/73/73 12/74/74 9/75/75
f 18/76/76 19/77/77 12/78/78
f 5/79/79 22/80/80 21/81/81
f 5/82/82 8/83/83 22/84/84
f 8/85/85 23/86/86 22/87/87
f 8/88/88 2/89/89 23/90/90
f 2/91/91 24/92/92 23/93/93
f 2/94/94 3/95/95 24/96/96
f 3/97/97 21/98/98 24/99/99
f 3/100/100 5/101/101 21/102/102
f 22/103/103 26/104/104 25/105/105
f 22/106/106 23/107/107 26/108/108
