mtllib material.mtl
o Default
v 1.5 0 -1.5
v 1.5 1 -1.5
v -1.5 1 -1.5
v -1.5 0 -1.5
v -1.5 1 1.5
v -1.5 0 1.5
v 1.5 0 1.5
v 1.5 1 1.5
v 1.5 2 -1.5
v 1.5 3 -1.5
v -1.5 3 -1.5
v -1.5 2 -1.5
v -1.5 3 1.5
v -1.5 2 1.5
v 1.5 2 1.5
v 1.5 3 1.5
v -1.5 4 -1.5
v -1.5 5 -1.5
v -1.5 5 1.5
v -1.5 4 1.5
v 1.5 4 -1.5
v 1.5 5 -1.5
v 1.5 4 1.5
v 1.5 5 1.5
v 1.5 7 1.5
v -1.5 7 1.5
v -1.5 7 -1.5
v 1.5 7 -1.5
v -1.5 6 -1.5
v -1.5 7 -1.5
v -1.5 7 1.5
v -1.5 6 1.5
v 1.5 6 -1.5
v 1.5 6 1.5
v -1.5 0 0.5
v -0.5 0 0.5
v -0.5 0 -0.5
v -1.5 0 -0.5
v -0.5 0 1.5
v 0.5 0 1.5
v 0.5 0 0.5
v -0.5 0 0.5
v 0.5 0 0.5
v 1.5 0 0.5
v 1.5 0 -0.5
v 0.5 0 -0.5
v -0.5 0 -0.5
v 0.5 0 -0.5
v 0.5 0 -1.5
v -0.5 0 -1.5
v -0.5 0 -1.5
v -0.5 0 1.5
v 0.5 0 1.5
v 1.5 0 1.5
v 1.5 0 -1.5
v 0.5 0 -1.5
vt 0.7058823529411765 0.41666666666666663
vt 0.8823529411764706 0.5
vt 0.7058823529411765 0.5
vt 0.7058823529411765 0.41666666666666663
vt 0.8823529411764706 0.41666666666666663
vt 0.8823529411764706 0.5
vt 0.17647058823529413 0.41666666666666663
vt 0.35294117647058826 0.5
vt 0.17647058823529413 0.5
vt 0.17647058823529413 0.41666666666666663
vt 0.35294117647058826 0.41666666666666663
vt 0.35294117647058826 0.5
vt 0.5294117647058824 0.41666666666666663
vt 0.7058823529411765 0.5
vt 0.5294117647058824 0.5
vt 0.5294117647058824 0.41666666666666663
vt 0.7058823529411765 0.41666666666666663
vt 0.7058823529411765 0.5
vt 0.35294117647058826 0.41666666666666663
vt 0.5294117647058824 0.5
vt 0.35294117647058826 0.5
vt 0.35294117647058826 0.41666666666666663
vt 0.5294117647058824 0.41666666666666663
vt 0.5294117647058824 0.5
vt 0.7058823529411765 0.5833333333333333
vt 0.8823529411764706 0.6666666666666667
vt 0.7058823529411765 0.6666666666666667
vt 0.7058823529411765 0.5833333333333333
vt 0.8823529411764706 0.5833333333333333
vt 0.8823529411764706 0.6666666666666667
vt 0.17647058823529413 0.5833333333333333
vt 0.35294117647058826 0.6666666666666667
vt 0.17647058823529413 0.6666666666666667
vt 0.17647058823529413 0.5833333333333333
vt 0.35294117647058826 0.5833333333333333
vt 0.35294117647058826 0.6666666666666667
vt 0.5294117647058824 0.5833333333333333
vt 0.7058823529411765 0.6666666666666667
vt 0.5294117647058824 0.6666666666666667
vt 0.5294117647058824 0.5833333333333333
vt 0.7058823529411765 0.5833333333333333
vt 0.7058823529411765 0.6666666666666667
vt 0.35294117647058826 0.5833333333333333
vt 0.5294117647058824 0.6666666666666667
vt 0.35294117647058826 0.6666666666666667
vt 0.35294117647058826 0.5833333333333333
vt 0.5294117647058824 0.5833333333333333
vt 0.5294117647058824 0.6666666666666667
vt 0.17647058823529413 0.75
vt 0.35294117647058826 0.8333333333333334
vt 0.17647058823529413 0.8333333333333334
vt 0.17647058823529413 0.75
vt 0.35294117647058826 0.75
vt 0.35294117647058826 0.8333333333333334
vt 0.7058823529411765 0.75
vt 0.8823529411764706 0.8333333333333334
vt 0.7058823529411765 0.8333333333333334
vt 0.7058823529411765 0.75
vt 0.8823529411764706 0.75
vt 0.8823529411764706 0.8333333333333334
vt 0.5294117647058824 0.75
vt 0.7058823529411765 0.8333333333333334
vt 0.5294117647058824 0.8333333333333334
vt 0.5294117647058824 0.75
vt 0.7058823529411765 0.75
vt 0.7058823529411765 0.8333333333333334
vt 0.35294117647058826 0.75
vt 0.5294117647058824 0.8333333333333334
vt 0.35294117647058826 0.8333333333333334
vt 0.35294117647058826 0.75
vt 0.5294117647058824 0.75
vt 0.5294117647058824 0.8333333333333334
vt 0 0.75
vt 0.17647058823529413 1
vt 0 1
vt 0 0.75
vt 0.17647058823529413 0.75
vt 0.17647058823529413 1
vt 0.17647058823529413 0.9166666666666666
vt 0.35294117647058826 1
vt 0.17647058823529413 1
vt 0.17647058823529413 0.9166666666666666
vt 0.35294117647058826 0.9166666666666666
vt 0.35294117647058826 1
vt 0.7058823529411765 0.9166666666666666
vt 0.8823529411764706 1
vt 0.7058823529411765 1
vt 0.7058823529411765 0.9166666666666666
vt 0.8823529411764706 0.9166666666666666
vt 0.8823529411764706 1
vt 0.5294117647058824 0.9166666666666666
vt 0.7058823529411765 1
vt 0.5294117647058824 1
vt 0.5294117647058824 0.9166666666666666
vt 0.7058823529411765 0.9166666666666666
vt 0.7058823529411765 1
vt 0.35294117647058826 0.9166666666666666
vt 0.5294117647058824 1
vt 0.35294117647058826 1
vt 0.35294117647058826 0.9166666666666666
vt 0.5294117647058824 0.9166666666666666
vt 0.5294117647058824 1
vt 0.058823529411764705 0.25
vt 0.11764705882352941 0.33333333333333337
vt 0.058823529411764705 0.33333333333333337
vt 0.058823529411764705 0.25
vt 0.11764705882352941 0.25
vt 0.11764705882352941 0.33333333333333337
vt 0.058823529411764705 0.25
vt 0.11764705882352941 0.33333333333333337
vt 0.058823529411764705 0.33333333333333337
vt 0.058823529411764705 0.25
vt 0.11764705882352941 0.25
vt 0.11764705882352941 0.33333333333333337
vt 0.058823529411764705 0.25
vt 0.11764705882352941 0.33333333333333337
vt 0.058823529411764705 0.33333333333333337
vt 0.058823529411764705 0.25
vt 0.11764705882352941 0.25
vt 0.11764705882352941 0.33333333333333337
vt 0.058823529411764705 0.25
vt 0.11764705882352941 0.33333333333333337
vt 0.058823529411764705 0.33333333333333337
vt 0.058823529411764705 0.25
vt 0.11764705882352941 0.25
vt 0.11764705882352941 0.33333333333333337
vt 0 0.25
vt 0.058823529411764705 0.33333333333333337
vt 0 0.33333333333333337
vt 0 0.25
vt 0.058823529411764705 0.25
vt 0.058823529411764705 0.33333333333333337
vt 0 0.25
vt 0.058823529411764705 0.33333333333333337
vt 0 0.33333333333333337
vt 0 0.25
vt 0.058823529411764705 0.25
vt 0.058823529411764705 0.33333333333333337
vt 0 0.25
vt 0.058823529411764705 0.33333333333333337
vt 0 0.33333333333333337
vt 0 0.25
vt 0.058823529411764705 0.25
vt 0.058823529411764705 0.33333333333333337
vt 0 0.25
vt 0.058823529411764705 0.33333333333333337
vt 0 0.33333333333333337
vt 0 0.25
vt 0.058823529411764705 0.25
vt 0.058823529411764705 0.33333333333333337
vt 0 0.25
vt 0.058823529411764705 0.33333333333333337
vt 0 0.33333333333333337
vt 0 0.25
vt 0.058823529411764705 0.25
vt 0.058823529411764705 0.33333333333333337
vt 0.35294117647058826 0.8333333333333334
vt 0.5294117647058824 0.9166666666666666
vt 0.35294117647058826 0.9166666666666666
vt 0.35294117647058826 0.8333333333333334
vt 0.5294117647058824 0.8333333333333334
vt 0.5294117647058824 0.9166666666666666
vt 0.5294117647058824 0.8333333333333334
vt 0.7058823529411765 0.9166666666666666
vt 0.5294117647058824 0.9166666666666666
vt 0.5294117647058824 0.8333333333333334
vt 0.7058823529411765 0.8333333333333334
vt 0.7058823529411765 0.9166666666666666
vt 0.17647058823529413 0.8333333333333334
vt 0.35294117647058826 0.9166666666666666
vt 0.17647058823529413 0.9166666666666666
vt 0.17647058823529413 0.8333333333333334
vt 0.35294117647058826 0.8333333333333334
vt 0.35294117647058826 0.9166666666666666
vt 0.7058823529411765 0.8333333333333334
vt 0.8823529411764706 0.9166666666666666
vt 0.7058823529411765 0.9166666666666666
vt 0.7058823529411765 0.8333333333333334
vt 0.8823529411764706 0.8333333333333334
vt 0.8823529411764706 0.9166666666666666
vt 0.35294117647058826 0.6666666666666667
vt 0.5294117647058824 0.75
vt 0.35294117647058826 0.75
vt 0.35294117647058826 0.6666666666666667
vt 0.5294117647058824 0.6666666666666667
vt 0.5294117647058824 0.75
vt 0.5294117647058824 0.6666666666666667
vt 0.7058823529411765 0.75
vt 0.5294117647058824 0.75
vt 0.5294117647058824 0.6666666666666667
vt 0.7058823529411765 0.6666666666666667
vt 0.7058823529411765 0.75
vt 0.17647058823529413 0.6666666666666667
vt 0.35294117647058826 0.75
vt 0.17647058823529413 0.75
vt 0.17647058823529413 0.6666666666666667
vt 0.35294117647058826 0.6666666666666667
vt 0.35294117647058826 0.75
vt 0.7058823529411765 0.6666666666666667
vt 0.8823529411764706 0.75
vt 0.7058823529411765 0.75
vt 0.7058823529411765 0.6666666666666667
vt 0.8823529411764706 0.6666666666666667
vt 0.8823529411764706 0.75
vt 0.35294117647058826 0.5
vt 0.5294117647058824 0.5833333333333333
vt 0.35294117647058826 0.5833333333333333
vt 0.35294117647058826 0.5
vt 0.5294117647058824 0.5
vt 0.5294117647058824 0.5833333333333333
vt 0.5294117647058824 0.5
vt 0.7058823529411765 0.5833333333333333
vt 0.5294117647058824 0.5833333333333333
vt 0.5294117647058824 0.5
vt 0.7058823529411765 0.5
vt 0.7058823529411765 0.5833333333333333
vt 0.17647058823529413 0.5
vt 0.35294117647058826 0.5833333333333333
vt 0.17647058823529413 0.5833333333333333
vt 0.17647058823529413 0.5
vt 0.35294117647058826 0.5
vt 0.35294117647058826 0.5833333333333333
vt 0.7058823529411765 0.5
vt 0.8823529411764706 0.5833333333333333
vt 0.7058823529411765 0.5833333333333333
vt 0.7058823529411765 0.5
vt 0.8823529411764706 0.5
vt 0.8823529411764706 0.5833333333333333
vn 0.4472135954999579 0 -0.8944271909999159
vn -0.7071067808919491 -1.7675899920663007e-9 -0.7071067814811457
vn 0.7071067811865476 0 -0.7071067811865476
vn 0.4472135954999579 0 -0.8944271909999159
vn -0.8164829739271162 -0.40825169392913196 -0.4082721000645606
vn -0.7071067808919491 -1.7675899920663007e-9 -0.7071067814811457
vn -0.8164829739271162 -0.40825169392913196 -0.4082721000645606
vn -0.7071067811865476 -1.767589992802723e-9 0.7071067811865476
vn -0.7071067808919491 -1.7675899920663007e-9 -0.7071067814811457
vn -0.8164829739271162 -0.40825169392913196 -0.4082721000645606
vn -0.3332851868752453 -0.666670370671254 0.6666870338311565
vn -0.7071067811865476 -1.767589992802723e-9 0.7071067811865476
vn 0.8944271909999159 0 0.4472135954999579
vn 0.7071067811865476 0 -0.7071067811865476
vn 0.7071067811865476 0 0.7071067811865476
vn 0.8944271909999159 0 0.4472135954999579
vn 0.4472135954999579 0 -0.8944271909999159
vn 0.7071067811865476 0 -0.7071067811865476
vn -0.3332851868752453 -0.666670370671254 0.6666870338311565
vn 0.7071067811865476 0 0.7071067811865476
vn -0.7071067811865476 -1.767589992802723e-9 0.7071067811865476
vn -0.3332851868752453 -0.666670370671254 0.6666870338311565
vn 0.8944271909999159 0 0.4472135954999579
vn 0.7071067811865476 0 0.7071067811865476
vn 0.7071067811865476 0 -0.7071067811865476
vn -0.7071067805973509 1.7675899913298788e-9 -0.7071067817757443
vn 0.7071067811865476 0 -0.7071067811865476
vn 0.7071067811865476 0 -0.7071067811865476
vn -0.7071067803027526 0 -0.7071067820703424
vn -0.7071067805973509 1.7675899913298788e-9 -0.7071067817757443
vn -0.7071067803027526 0 -0.7071067820703424
vn -0.7071067820703424 1.7675899950119887e-9 0.7071067803027525
vn -0.7071067805973509 1.7675899913298788e-9 -0.7071067817757443
vn -0.7071067803027526 0 -0.7071067820703424
vn -0.7071067817757442 -1.7675899942755668e-9 0.7071067805973508
vn -0.7071067820703424 1.7675899950119887e-9 0.7071067803027525
vn 0.7071067811865476 0 0.7071067811865476
vn 0.7071067811865476 0 -0.7071067811865476
vn 0.7071067811865476 0 0.7071067811865476
vn 0.7071067811865476 0 0.7071067811865476
vn 0.7071067811865476 0 -0.7071067811865476
vn 0.7071067811865476 0 -0.7071067811865476
vn -0.7071067817757442 -1.7675899942755668e-9 0.7071067805973508
vn 0.7071067811865476 0 0.7071067811865476
vn -0.7071067820703424 1.7675899950119887e-9 0.7071067803027525
vn -0.7071067817757442 -1.7675899942755668e-9 0.7071067805973508
vn 0.7071067811865476 0 0.7071067811865476
vn 0.7071067811865476 0 0.7071067811865476
vn -0.7071067811865476 0 -0.7071067811865475
vn -0.7071067811865476 0 0.7071067811865476
vn -0.7071067811865476 0 -0.7071067811865475
vn -0.7071067811865476 0 -0.7071067811865475
vn -0.7071067814811458 1.7675899935391448e-9 0.7071067808919492
vn -0.7071067811865476 0 0.7071067811865476
vn 0.7071067811865476 0 -0.7071067811865476
vn -0.7071067811865476 0 -0.7071067811865475
vn 0.7071067811865476 0 -0.7071067811865476
vn 0.7071067811865476 0 -0.7071067811865476
vn -0.7071067811865476 0 -0.7071067811865475
vn -0.7071067811865476 0 -0.7071067811865475
vn 0.7071067811865476 0 0.7071067811865476
vn 0.7071067811865476 0 -0.7071067811865476
vn 0.7071067811865476 0 0.7071067811865476
vn 0.7071067811865476 0 0.7071067811865476
vn 0.7071067811865476 0 -0.7071067811865476
vn 0.7071067811865476 0 -0.7071067811865476
vn -0.7071067814811458 1.7675899935391448e-9 0.7071067808919492
vn 0.7071067811865476 0 0.7071067811865476
vn -0.7071067811865476 0 0.7071067811865476
vn -0.7071067814811458 1.7675899935391448e-9 0.7071067808919492
vn 0.7071067811865476 0 0.7071067811865476
vn 0.7071067811865476 0 0.7071067811865476
vn 0.3333925859879296 0.6666518507722986 0.6666518532713682
vn 0.00009998999980817563 0.9999999950010001 -4.998999817564645e-13
vn 0.00009998999980817563 0.9999999950010001 -4.998999817564645e-13
vn 0.3333925859879296 0.6666518507722986 0.6666518532713682
vn 0.8165101858021424 0.40823468524950074 -0.4082346852492966
vn 0.00009998999980817563 0.9999999950010001 -4.998999817564645e-13
vn -0.7071067811865476 0 -0.7071067811865475
vn -0.8944271909999159 0 0.44721359549995804
vn -0.4472135954999579 0 -0.8944271909999159
vn -0.7071067811865476 0 -0.7071067811865475
vn -0.7071067811865476 0 0.7071067811865476
vn -0.8944271909999159 0 0.44721359549995804
vn 0.7071067811865476 2.946130822494457e-9 -0.7071067811865476
vn -0.4472135954999579 0 -0.8944271909999159
vn 0.8165101858021424 0.40823468524950074 -0.4082346852492966
vn 0.7071067811865476 2.946130822494457e-9 -0.7071067811865476
vn -0.7071067811865476 0 -0.7071067811865475
vn -0.4472135954999579 0 -0.8944271909999159
vn 0.7071067817757442 2.3569047018306812e-9 0.7071067805973507
vn 0.8165101858021424 0.40823468524950074 -0.4082346852492966
vn 0.3333925859879296 0.6666518507722986 0.6666518532713682
vn 0.7071067817757442 2.3569047018306812e-9 0.7071067805973507
vn 0.7071067811865476 2.946130822494457e-9 -0.7071067811865476
vn 0.8165101858021424 0.40823468524950074 -0.4082346852492966
vn -0.7071067811865476 0 0.7071067811865476
vn 0.3333925859879296 0.6666518507722986 0.6666518532713682
vn -0.8944271909999159 0 0.44721359549995804
vn -0.7071067811865476 0 0.7071067811865476
vn 0.7071067817757442 2.3569047018306812e-9 0.7071067805973507
vn 0.3333925859879296 0.6666518507722986 0.6666518532713682
vn 0.00009998999979429826 -0.9999999948622128 0.000016660567431068874
vn 0.0000999899998081756 -0.9999999950009999 -3.332666347689851e-13
vn 0.00008332943213641645 -0.9999999963893156 0.00001666056760232674
vn 0.00009998999979429826 -0.9999999948622128 0.000016660567431068874
vn 0.00008332943224056573 -0.9999999963893156 -0.00001666056787306088
vn 0.0000999899998081756 -0.9999999950009999 -3.332666347689851e-13
vn 0.00009998999980817563 -0.9999999950010001 -4.998999521534778e-13
vn 0.0000999899998081756 -0.9999999950009999 -1.6663331738449254e-13
vn 0.00009998999980817563 -0.9999999950010001 -4.998999521534778e-13
vn 0.00009998999980817563 -0.9999999950010001 -4.998999521534778e-13
vn 0.0000999899998081756 -0.9999999950009999 1.6663331738449254e-13
vn 0.0000999899998081756 -0.9999999950009999 -1.6663331738449254e-13
vn 0.0000999899998081756 -0.9999999950009999 -3.332666347689851e-13
vn 0.0000999899998081756 -0.9999999950009999 -3.332666347689851e-13
vn 0.0000999899998081756 -0.9999999950009999 -1.6663331738449254e-13
vn 0.0000999899998081756 -0.9999999950009999 -3.332666347689851e-13
vn 0.0000999899998081756 -0.9999999950009999 -1.6663331738449254e-13
vn 0.0000999899998081756 -0.9999999950009999 -3.332666347689851e-13
vn 0.0000999899998081756 -0.9999999950009999 -1.6663331738449254e-13
vn 0.00009998999980817563 -0.9999999950010001 -4.998999521534778e-13
vn 0.0000999899998081756 -0.9999999950009999 1.6663331738449254e-13
vn 0.0000999899998081756 -0.9999999950009999 -1.6663331738449254e-13
vn 0.00009998999980817563 -0.9999999950010001 -4.998999521534778e-13
vn 0.00009998999980817563 -0.9999999950010001 -4.998999521534778e-13
vn 0.00008332943224056573 -0.9999999963893156 -0.00001666056787306088
vn 0.00007499914843421059 -0.9999999968752927 -0.000024990851561375556
vn 0.0000999899998081756 -0.9999999950009999 -3.332666347689851e-13
vn 0.00008332943224056573 -0.9999999963893156 -0.00001666056787306088
vn -0.8164829739271162 -0.40825169392913196 -0.4082721000645606
vn 0.00007499914843421059 -0.9999999968752927 -0.000024990851561375556
vn -0.3332851868752453 -0.666670370671254 0.6666870338311565
vn 0.00008332943213641645 -0.9999999963893156 0.00001666056760232674
vn 0.00005000829677901341 -0.9999999987495851 0
vn -0.3332851868752453 -0.666670370671254 0.6666870338311565
vn 0.00009998999979429826 -0.9999999948622128 0.000016660567431068874
vn 0.00008332943213641645 -0.9999999963893156 0.00001666056760232674
vn 0.00009998999980817563 -0.9999999950010001 0
vn 0.0000999899998081756 -0.9999999950009999 -1.6663331738449254e-13
vn 0.00009998999980817563 -0.9999999950010001 0
vn 0.00009998999980817563 -0.9999999950010001 0
vn 0.0000999899998081756 -0.9999999950009999 -3.332666347689851e-13
vn 0.0000999899998081756 -0.9999999950009999 -1.6663331738449254e-13
vn 0.0000999899998081756 -0.9999999950009999 -1.6663331738449254e-13
vn 0.00009998999980817563 -0.9999999950010001 0
vn 0.0000999899998081756 -0.9999999950009999 -3.332666347689851e-13
vn 0.0000999899998081756 -0.9999999950009999 -1.6663331738449254e-13
vn 0.00009998999980817563 -0.9999999950010001 0
vn 0.00009998999980817563 -0.9999999950010001 0
vn 0.0000999899998081756 -0.9999999950009999 1.6663331738449254e-13
vn 0.0000999899998081756 -0.9999999950009999 1.6663331738449254e-13
vn 0.0000999899998081756 -0.9999999950009999 -1.6663331738449254e-13
vn 0.0000999899998081756 -0.9999999950009999 1.6663331738449254e-13
vn 0.0000999899998081756 -0.9999999950009999 -1.6663331738449254e-13
vn 0.0000999899998081756 -0.9999999950009999 1.6663331738449254e-13
vn -0.7071067811865476 0 0.7071067811865476
vn 0.7071067817757442 2.3569047018306812e-9 0.7071067805973507
vn -0.7071067811865476 0 0.7071067811865476
vn -0.7071067811865476 0 0.7071067811865476
vn 0.7071067811865476 0 0.7071067811865476
vn 0.7071067817757442 2.3569047018306812e-9 0.7071067805973507
vn 0.7071067811865476 0 0.7071067811865476
vn 0.7071067811865476 2.946130822494457e-9 -0.7071067811865476
vn 0.7071067817757442 2.3569047018306812e-9 0.7071067805973507
vn 0.7071067811865476 0 0.7071067811865476
vn 0.7071067811865476 0 -0.7071067811865476
vn 0.7071067811865476 2.946130822494457e-9 -0.7071067811865476
vn -0.7071067811865476 0 -0.7071067811865475
vn -0.7071067811865476 0 0.7071067811865476
vn -0.7071067811865476 0 -0.7071067811865475
vn -0.7071067811865476 0 -0.7071067811865475
vn -0.7071067811865476 0 0.7071067811865476
vn -0.7071067811865476 0 0.7071067811865476
vn 0.7071067811865476 0 -0.7071067811865476
vn -0.7071067811865476 0 -0.7071067811865475
vn 0.7071067811865476 2.946130822494457e-9 -0.7071067811865476
vn 0.7071067811865476 0 -0.7071067811865476
vn -0.7071067811865476 0 -0.7071067811865475
vn -0.7071067811865476 0 -0.7071067811865475
vn -0.7071067820703424 1.7675899950119887e-9 0.7071067803027525
vn 0.7071067811865476 0 0.7071067811865476
vn -0.7071067814811458 1.7675899935391448e-9 0.7071067808919492
vn -0.7071067820703424 1.7675899950119887e-9 0.7071067803027525
vn 0.7071067811865476 0 0.7071067811865476
vn 0.7071067811865476 0 0.7071067811865476
vn 0.7071067811865476 0 0.7071067811865476
vn 0.7071067811865476 0 -0.7071067811865476
vn 0.7071067811865476 0 0.7071067811865476
vn 0.7071067811865476 0 0.7071067811865476
vn 0.7071067811865476 0 -0.7071067811865476
vn 0.7071067811865476 0 -0.7071067811865476
vn -0.7071067805973509 1.7675899913298788e-9 -0.7071067817757443
vn -0.7071067814811458 1.7675899935391448e-9 0.7071067808919492
vn -0.7071067811865476 0 -0.7071067811865475
vn -0.7071067805973509 1.7675899913298788e-9 -0.7071067817757443
vn -0.7071067820703424 1.7675899950119887e-9 0.7071067803027525
vn -0.7071067814811458 1.7675899935391448e-9 0.7071067808919492
vn 0.7071067811865476 0 -0.7071067811865476
vn -0.7071067811865476 0 -0.7071067811865475
vn 0.7071067811865476 0 -0.7071067811865476
vn 0.7071067811865476 0 -0.7071067811865476
vn -0.7071067805973509 1.7675899913298788e-9 -0.7071067817757443
vn -0.7071067811865476 0 -0.7071067811865475
vn -0.7071067811865476 -1.767589992802723e-9 0.7071067811865476
vn 0.7071067811865476 0 0.7071067811865476
vn -0.7071067817757442 -1.7675899942755668e-9 0.7071067805973508
vn -0.7071067811865476 -1.767589992802723e-9 0.7071067811865476
vn 0.7071067811865476 0 0.7071067811865476
vn 0.7071067811865476 0 0.7071067811865476
vn 0.7071067811865476 0 0.7071067811865476
vn 0.7071067811865476 0 -0.7071067811865476
vn 0.7071067811865476 0 0.7071067811865476
vn 0.7071067811865476 0 0.7071067811865476
vn 0.7071067811865476 0 -0.7071067811865476
vn 0.7071067811865476 0 -0.7071067811865476
vn -0.7071067808919491 -1.7675899920663007e-9 -0.7071067814811457
vn -0.7071067817757442 -1.7675899942755668e-9 0.7071067805973508
vn -0.7071067803027526 0 -0.7071067820703424
vn -0.7071067808919491 -1.7675899920663007e-9 -0.7071067814811457
vn -0.7071067811865476 -1.767589992802723e-9 0.7071067811865476
vn -0.7071067817757442 -1.7675899942755668e-9 0.7071067805973508
vn 0.7071067811865476 0 -0.7071067811865476
vn -0.7071067803027526 0 -0.7071067820703424
vn 0.7071067811865476 0 -0.7071067811865476
vn 0.7071067811865476 0 -0.7071067811865476
vn -0.7071067808919491 -1.7675899920663007e-9 -0.7071067814811457
vn -0.7071067803027526 0 -0.7071067820703424
g Scene
f 1/1/1 3/2/2 2/3/3
f 1/4/4 4/5/5 3/6/6
f 4/7/7 5/8/8 3/9/9
f 4/10/10 6/11/11 5/12/12
f 7/13/13 2/14/14 8/15/15
f 7/16/16 1/17/17 2/18/18
f 6/19/19 8/20/20 5/21/21
f 6/22/22 7/23/23 8/24/24
f 9/25/25 11/26/26 10/27/27
f 9/28/28 12/29/29 11/30/30
f 12/31/31 13/32/32 11/33/33
f 12/34/34 14/35/35 13/36/36
f 15/37/37 10/38/38 16/39/39
f 15/40/40 9/41/41 10/42/42
f 14/43/43 16/44/44 13/45/45
f 14/46/46 15/47/47 16/48/48
f 17/49/49 19/50/50 18/51/51
f 17/52/52 20/53/53 19/54/54
f 21/55/55 18/56/56 22/57/57
f 21/58/58 17/59/59 18/60/60
f 23/61/61 22/62/62 24/63/63
f 23/64/64 21/65/65 22/66/66
f 20/67/67 24/68/68 19/69/69
f 20/70/70 23/71/71 24/72/72
f 25/73/73 27/74/74 26/75/75
f 25/76/76 28/77/77 27/78/78
f 29/79/79 31/80/80 30/81/81
f 29/82/82 32/83/83 31/84/84
f 33/85/85 30/86/86 28/87/87
f 33/88/88 29/89/89 30/90/90
f 34/91/91 28/92/92 25/93/93
f 34/94/94 33/95/95 28/96/96
f 32/97/97 25/98/98 31/99/99
f 32/100/100 34/101/101 25/102/102
f 35/103/103 37/104/104 36/105/105
f 35/106/106 38/107/107 37/108/108
f 39/109/109 41/110/110 40/111/111
f 39/112/112 42/113/113 41/114/114
f 43/115/115 45/116/116 44/117/117
f 43/118/118 46/119/119 45/120/120
f 47/121/121 49/122/122 48/123/123
f 47/124/124 50/125/125 49/126/126
f 38/127/127 51/128/128 37/129/129
f 38/130/130 4/131/131 51/132/132
f 6/133/133 36/134/134 52/135/135
f 6/136/136 35/137/137 36/138/138
f 53/139/139 44/140/140 54/141/141
f 53/142/142 43/143/143 44/144/144
f 46/145/145 55/146/146 45/147/147
f 46/148/148 56/149/149 55/150/150
f 42/151/151 48/152/152 41/153/153
f 42/154/154 47/155/155 48/156/156
f 19/157/157 34/158/158 32/159/159
f 19/160/160 24/161/161 34/162/162
f 24/163/163 33/164/164 34/165/165
f 24/166/166 22/167/167 33/168/168
f 18/169/169 32/170/170 29/171/171
f 18/172/172 19/173/173 32/174/174
f 22/175/175 29/176/176 33/177/177
f 22/178/178 18/179/179 29/180/180
f 13/181/181 23/182/182 20/183/183
f 13/184/184 16/185/185 23/186/186
f 16/187/187 21/188/188 23/189/189
f 16/190/190 10/191/191 21/192/192
f 11/193/193 20/194/194 17/195/195
f 11/196/196 13/197/197 20/198/198
f 10/199/199 17/200/200 21/201/201
f 10/202/202 11/203/203 17/204/204
f 5/205/205 15/206/206 14/207/207
f 5/208/208 8/209/209 15/210/210
f 8/211/211 9/212/212 15/213/213
f 8/214/214 2/215/215 9/216/216
f 3/217/217 14/218/218 12/219/219
f 3/220/220 5/221/221 14/222/222
f 2/223/223 12/224/224 9/225/225
f 2/226/226 3/227/227 12/228/228
