mtllib material.mtl
o Default
v -1.5 0 -1.5
v -1.5 1 -1.5
v -1.5 1 1.5
v -1.5 0 1.5
v 1.5 0 -1.5
v 1.5 1 -1.5
v 1.5 0 1.5
v 1.5 1 1.5
v 1.5 3 1.5
v -1.5 3 1.5
v -1.5 3 -1.5
v 1.5 3 -1.5
v -1.5 2 -1.5
v -1.5 3 -1.5
v -1.5 3 1.5
v -1.5 2 1.5
v 1.5 2 -1.5
v 1.5 2 1.5
v -1.5 0 0.5
v -0.5 0 0.5
v -0.5 0 -0.5
v -1.5 0 -0.5
v -0.5 0 1.5
v 0.5 0 1.5
v 0.5 0 0.5
v 1.5 0 0.5
v 1.5 0 -0.5
v 0.5 0 -0.5
v 0.5 0 -1.5
v -0.5 0 -1.5
vt 0.17647058823529413 0.75
vt 0.35294117647058826 0.8333333333333334
vt 0.17647058823529413 0.8333333333333334
vt 0.17647058823529413 0.75
vt 0.35294117647058826 0.75
vt 0.35294117647058826 0.8333333333333334
vt 0.7058823529411765 0.75
vt 0.8823529411764706 0.8333333333333334
vt 0.7058823529411765 0.8333333333333334
vt 0.7058823529411765 0.75
vt 0.8823529411764706 0.75
vt 0.8823529411764706 0.8333333333333334
vt 0.5294117647058824 0.75
vt 0.7058823529411765 0.8333333333333334
vt 0.5294117647058824 0.8333333333333334
vt 0.5294117647058824 0.75
vt 0.7058823529411765 0.75
vt 0.7058823529411765 0.8333333333333334
vt 0.35294117647058826 0.75
vt 0.5294117647058824 0.8333333333333334
vt 0.35294117647058826 0.8333333333333334
vt 0.35294117647058826 0.75
vt 0.5294117647058824 0.75
vt 0.5294117647058824 0.8333333333333334
vt 0 0.75
vt 0.17647058823529413 1
vt 0 1
vt 0 0.75
vt 0.17647058823529413 0.75
vt 0.17647058823529413 1
vt 0.17647058823529413 0.9166666666666666
vt 0.35294117647058826 1
vt 0.17647058823529413 1
vt 0.17647058823529413 0.9166666666666666
vt 0.35294117647058826 0.9166666666666666
vt 0.35294117647058826 1
vt 0.7058823529411765 0.9166666666666666
vt 0.8823529411764706 1
vt 0.7058823529411765 1
vt 0.7058823529411765 0.9166666666666666
vt 0.8823529411764706 0.9166666666666666
vt 0.8823529411764706 1
vt 0.5294117647058824 0.9166666666666666
vt 0.7058823529411765 1
vt 0.5294117647058824 1
vt 0.5294117647058824 0.9166666666666666
vt 0.7058823529411765 0.9166666666666666
vt 0.7058823529411765 1
vt 0.35294117647058826 0.9166666666666666
vt 0.5294117647058824 1
vt 0.35294117647058826 1
vt 0.35294117647058826 0.9166666666666666
vt 0.5294117647058824 0.9166666666666666
vt 0.5294117647058824 1
vt 0.058823529411764705 0.25
vt 0.11764705882352941 0.33333333333333337
vt 0.058823529411764705 0.33333333333333337
vt 0.058823529411764705 0.25
vt 0.11764705882352941 0.25
vt 0.11764705882352941 0.33333333333333337
vt 0.058823529411764705 0.25
vt 0.11764705882352941 0.33333333333333337
vt 0.058823529411764705 0.33333333333333337
vt 0.058823529411764705 0.25
vt 0.11764705882352941 0.25
vt 0.11764705882352941 0.33333333333333337
vt 0.058823529411764705 0.25
vt 0.11764705882352941 0.33333333333333337
vt 0.058823529411764705 0.33333333333333337
vt 0.058823529411764705 0.25
vt 0.11764705882352941 0.25
vt 0.11764705882352941 0.33333333333333337
vt 0.058823529411764705 0.25
vt 0.11764705882352941 0.33333333333333337
vt 0.058823529411764705 0.33333333333333337
vt 0.058823529411764705 0.25
vt 0.11764705882352941 0.25
vt 0.11764705882352941 0.33333333333333337
vt 0 0.25
vt 0.058823529411764705 0.33333333333333337
vt 0 0.33333333333333337
vt 0 0.25
vt 0.058823529411764705 0.25
vt 0.058823529411764705 0.33333333333333337
vt 0 0.25
vt 0.058823529411764705 0.33333333333333337
vt 0 0.33333333333333337
vt 0 0.25
vt 0.058823529411764705 0.25
vt 0.058823529411764705 0.33333333333333337
vt 0 0.25
vt 0.058823529411764705 0.33333333333333337
vt 0 0.33333333333333337
vt 0 0.25
vt 0.058823529411764705 0.25
vt 0.058823529411764705 0.33333333333333337
vt 0 0.25
vt 0.058823529411764705 0.33333333333333337
vt 0 0.33333333333333337
vt 0 0.25
vt 0.058823529411764705 0.25
vt 0.058823529411764705 0.33333333333333337
vt 0 0.25
vt 0.058823529411764705 0.33333333333333337
vt 0 0.33333333333333337
vt 0 0.25
vt 0.058823529411764705 0.25
vt 0.058823529411764705 0.33333333333333337
vt 0.35294117647058826 0.8333333333333334
vt 0.5294117647058824 0.9166666666666666
vt 0.35294117647058826 0.9166666666666666
vt 0.35294117647058826 0.8333333333333334
vt 0.5294117647058824 0.8333333333333334
vt 0.5294117647058824 0.9166666666666666
vt 0.5294117647058824 0.8333333333333334
vt 0.7058823529411765 0.9166666666666666
vt 0.5294117647058824 0.9166666666666666
vt 0.5294117647058824 0.8333333333333334
vt 0.7058823529411765 0.8333333333333334
vt 0.7058823529411765 0.9166666666666666
vt 0.17647058823529413 0.8333333333333334
vt 0.35294117647058826 0.9166666666666666
vt 0.17647058823529413 0.9166666666666666
vt 0.17647058823529413 0.8333333333333334
vt 0.35294117647058826 0.8333333333333334
vt 0.35294117647058826 0.9166666666666666
vt 0.7058823529411765 0.8333333333333334
vt 0.8823529411764706 0.9166666666666666
vt 0.7058823529411765 0.9166666666666666
vt 0.7058823529411765 0.8333333333333334
vt 0.8823529411764706 0.8333333333333334
vt 0.8823529411764706 0.9166666666666666
vn -0.8164965811828174 -0.40823808463943995 -0.4082584955229863
vn -0.7071067811865476 0 0.7071067811865476
vn -0.7071067811865476 0 -0.7071067811865475
vn -0.8164965811828174 -0.40823808463943995 -0.4082584955229863
vn -0.33332222402761547 -0.6666777744448475 0.6666611133331156
vn -0.7071067811865476 0 0.7071067811865476
vn 0.33334444402766233 -0.6666555544449303 -0.6666722233328845
vn -0.7071067811865476 0 -0.7071067811865475
vn 0.7071067811865476 0 -0.7071067811865476
vn 0.33334444402766233 -0.6666555544449303 -0.6666722233328845
vn -0.8164965811828174 -0.40823808463943995 -0.4082584955229863
vn -0.7071067811865476 0 -0.7071067811865475
vn 0.816496581182843 -0.40825849501276545 0.40823808514963544
vn 0.7071067811865476 0 -0.7071067811865476
vn 0.7071067811865476 0 0.7071067811865476
vn 0.816496581182843 -0.40825849501276545 0.40823808514963544
vn 0.33334444402766233 -0.6666555544449303 -0.6666722233328845
vn 0.7071067811865476 0 -0.7071067811865476
vn -0.33332222402761547 -0.6666777744448475 0.6666611133331156
vn 0.7071067811865476 0 0.7071067811865476
vn -0.7071067811865476 0 0.7071067811865476
vn -0.33332222402761547 -0.6666777744448475 0.6666611133331156
vn 0.816496581182843 -0.40825849501276545 0.40823808514963544
vn 0.7071067811865476 0 0.7071067811865476
vn 0.3333925859879296 0.6666518507722985 0.6666518532713682
vn 0.00009998999980817563 0.9999999950010001 -4.998999891572111e-13
vn 0.00009998999980817563 0.9999999950010001 -4.998999817564645e-13
vn 0.3333925859879296 0.6666518507722985 0.6666518532713682
vn 0.8165101858021422 0.40823468524950063 -0.40823468524929657
vn 0.00009998999980817563 0.9999999950010001 -4.998999891572111e-13
vn -0.7071067811865476 0 -0.7071067811865475
vn -0.8944271909999159 0 0.44721359549995804
vn -0.4472135954999579 0 -0.8944271909999159
vn -0.7071067811865476 0 -0.7071067811865475
vn -0.7071067811865476 0 0.7071067811865476
vn -0.8944271909999159 0 0.44721359549995804
vn 0.7071067811865476 2.946130874833489e-9 -0.7071067811865476
vn -0.4472135954999579 0 -0.8944271909999159
vn 0.8165101858021422 0.40823468524950063 -0.40823468524929657
vn 0.7071067811865476 2.946130874833489e-9 -0.7071067811865476
vn -0.7071067811865476 0 -0.7071067811865475
vn -0.4472135954999579 0 -0.8944271909999159
vn 0.7071067817757442 2.356904701830681e-9 0.7071067805973507
vn 0.8165101858021422 0.40823468524950063 -0.40823468524929657
vn 0.3333925859879296 0.6666518507722985 0.6666518532713682
vn 0.7071067817757442 2.356904701830681e-9 0.7071067805973507
vn 0.7071067811865476 2.946130874833489e-9 -0.7071067811865476
vn 0.8165101858021422 0.40823468524950063 -0.40823468524929657
vn -0.7071067811865476 0 0.7071067811865476
vn 0.3333925859879296 0.6666518507722985 0.6666518532713682
vn -0.8944271909999159 0 0.44721359549995804
vn -0.7071067811865476 0 0.7071067811865476
vn 0.7071067817757442 2.356904701830681e-9 0.7071067805973507
vn 0.3333925859879296 0.6666518507722985 0.6666518532713682
vn 0.0000999899997942909 -0.9999999948621389 0.000016664999701880412
vn 0.00003333000007953401 -0.9999999993056946 0.00001666499991479617
vn 0.000008332500038977068 -0.9999999999305695 -0.000008332499976489588
vn 0.0000999899997942909 -0.9999999948621389 0.000016664999701880412
vn 0.000049994999876314194 -0.9999999986113889 0.000016664999625518613
vn 0.00003333000007953401 -0.9999999993056946 0.00001666499991479617
vn 0.00001666500008142532 -0.999999997639361 -0.00006666000020073883
vn 0.00003332999996845622 -0.9999999993056945 0.000016664999859257277
vn 0.00001666499992174269 -0.9999999997222778 -0.00001666500025500103
vn 0.00001666500008142532 -0.999999997639361 -0.00006666000020073883
vn 0.000008332500038977068 -0.9999999999305695 -0.000008332499976489588
vn 0.00003332999996845622 -0.9999999993056945 0.000016664999859257277
vn 0.00003332999996845622 -0.9999999993056945 0.000016664999859257277
vn 0.00006665999979343698 -0.9999999965284722 0.00004999499989715378
vn -0.000016665000060598255 -0.9999999997222779 -0.000016665000060598255
vn 0.00003332999996845622 -0.9999999993056945 0.000016664999859257277
vn -0.000008332500032030555 -0.9999999999305694 0.000008332500177834717
vn 0.00006665999979343698 -0.9999999965284722 0.00004999499989715378
vn 0.00003333000007953401 -0.9999999993056946 0.00001666499991479617
vn -0.00001666500003976284 -0.9999999993056946 -0.00003333000016284235
vn -0.000008332500032030555 -0.9999999999305694 0.000008332500177834717
vn 0.00003333000007953401 -0.9999999993056946 0.00001666499991479617
vn 0.000049994999737466954 -0.9999999975004997 0.000049994999737466954
vn -0.00001666500003976284 -0.9999999993056946 -0.00003333000016284235
vn 0.000049994999876314194 -0.9999999986113889 0.000016664999625518613
vn 0.000049994999737466954 -0.9999999975004997 0.000049994999737466954
vn 0.00003333000007953401 -0.9999999993056946 0.00001666499991479617
vn 0.000049994999876314194 -0.9999999986113889 0.000016664999625518613
vn -0.8164965811828174 -0.40823808463943995 -0.4082584955229863
vn 0.000049994999737466954 -0.9999999975004997 0.000049994999737466954
vn -0.33332222402761547 -0.6666777744448475 0.6666611133331156
vn 0.000008332500038977068 -0.9999999999305695 -0.000008332499976489588
vn 0.00001666500008142532 -0.999999997639361 -0.00006666000020073883
vn -0.33332222402761547 -0.6666777744448475 0.6666611133331156
vn 0.0000999899997942909 -0.9999999948621389 0.000016664999701880412
vn 0.000008332500038977068 -0.9999999999305695 -0.000008332499976489588
vn 0.00001666499992174269 -0.9999999997222778 -0.00001666500025500103
vn -0.000016665000060598255 -0.9999999997222779 -0.000016665000060598255
vn 0.816496581182843 -0.40825849501276545 0.40823808514963544
vn 0.00001666499992174269 -0.9999999997222778 -0.00001666500025500103
vn 0.00003332999996845622 -0.9999999993056945 0.000016664999859257277
vn -0.000016665000060598255 -0.9999999997222779 -0.000016665000060598255
vn -0.000008332500032030555 -0.9999999999305694 0.000008332500177834717
vn 0.33334444402766233 -0.6666555544449303 -0.6666722233328845
vn 0.00006665999979343698 -0.9999999965284722 0.00004999499989715378
vn -0.000008332500032030555 -0.9999999999305694 0.000008332500177834717
vn -0.00001666500003976284 -0.9999999993056946 -0.00003333000016284235
vn 0.33334444402766233 -0.6666555544449303 -0.6666722233328845
vn 0.000008332500038977068 -0.9999999999305695 -0.000008332499976489588
vn -0.000008332500032030555 -0.9999999999305694 0.000008332500177834717
vn 0.00003332999996845622 -0.9999999993056945 0.000016664999859257277
vn 0.000008332500038977068 -0.9999999999305695 -0.000008332499976489588
vn 0.00003333000007953401 -0.9999999993056946 0.00001666499991479617
vn -0.000008332500032030555 -0.9999999999305694 0.000008332500177834717
vn -0.7071067811865476 0 0.7071067811865476
vn 0.7071067817757442 2.356904701830681e-9 0.7071067805973507
vn -0.7071067811865476 0 0.7071067811865476
vn -0.7071067811865476 0 0.7071067811865476
vn 0.7071067811865476 0 0.7071067811865476
vn 0.7071067817757442 2.356904701830681e-9 0.7071067805973507
vn 0.7071067811865476 0 0.7071067811865476
vn 0.7071067811865476 2.946130874833489e-9 -0.7071067811865476
vn 0.7071067817757442 2.356904701830681e-9 0.7071067805973507
vn 0.7071067811865476 0 0.7071067811865476
vn 0.7071067811865476 0 -0.7071067811865476
vn 0.7071067811865476 2.946130874833489e-9 -0.7071067811865476
vn -0.7071067811865476 0 -0.7071067811865475
vn -0.7071067811865476 0 0.7071067811865476
vn -0.7071067811865476 0 -0.7071067811865475
vn -0.7071067811865476 0 -0.7071067811865475
vn -0.7071067811865476 0 0.7071067811865476
vn -0.7071067811865476 0 0.7071067811865476
vn 0.7071067811865476 0 -0.7071067811865476
vn -0.7071067811865476 0 -0.7071067811865475
vn 0.7071067811865476 2.946130874833489e-9 -0.7071067811865476
vn 0.7071067811865476 0 -0.7071067811865476
vn -0.7071067811865476 0 -0.7071067811865475
vn -0.7071067811865476 0 -0.7071067811865475
g Scene
f 1/1/1 3/2/2 2/3/3
f 1/4/4 4/5/5 3/6/6
f 5/7/7 2/8/8 6/9/9
f 5/10/10 1/11/11 2/12/12
f 7/13/13 6/14/14 8/15/15
f 7/16/16 5/17/17 6/18/18
f 4/19/19 8/20/20 3/21/21
f 4/22/22 7/23/23 8/24/24
f 9/25/25 11/26/26 10/27/27
f 9/28/28 12/29/29 11/30/30
f 13/31/31 15/32/32 14/33/33
f 13/34/34 16/35/35 15/36/36
f 17/37/37 14/38/38 12/39/39
f 17/40/40 13/41/41 14/42/42
f 18/43/43 12/44/44 9/45/45
f 18/46/46 17/47/47 12/48/48
f 16/49/49 9/50/50 15/51/51
f 16/52/52 18/53/53 9/54/54
f 19/55/55 21/56/56 20/57/57
f 19/58/58 22/59/59 21/60/60
f 23/61/61 25/62/62 24/63/63
f 23/64/64 20/65/65 25/66/66
f 25/67/67 27/68/68 26/69/69
f 25/70/70 28/71/71 27/72/72
f 21/73/73 29/74/74 28/75/75
f 21/76/76 30/77/77 29/78/78
f 22/79/79 30/80/80 21/81/81
f 22/82/82 1/83/83 30/84/84
f 4/85/85 20/86/86 23/87/87
f 4/88/88 19/89/89 20/90/90
f 24/91/91 26/92/92 7/93/93
f 24/94/94 25/95/95 26/96/96
f 28/97/97 5/98/98 27/99/99
f 28/100/100 29/101/101 5/102/102
f 20/103/103 28/104/104 25/105/105
f 20/106/106 21/107/107 28/108/108
f 3/109/109 18/110/110 16/111/111
f 3/112/112 8/113/113 18/114/114
f 8/115/115 17/116/116 18/117/117
f 8/118/118 6/119/119 17/120/120
f 2/121/121 16/122/122 13/123/123
f 2/124/124 3/125/125 16/126/126
f 6/127/127 13/128/128 17/129/129
f 6/130/130 2/131/131 13/132/132
