mtllib material.mtl
o Default
v 1.5 1 -1.5
v 1.5 2 -1.5
v -1.5 2 -1.5
v -1.5 1 -1.5
v -1.5 1 -1.5
v -1.5 2 -1.5
v -1.5 2 1.5
v -1.5 1 1.5
v 1.5 1 1.5
v 1.5 2 1.5
v 1.5 2 -1.5
v 1.5 1 -1.5
v -1.5 1 1.5
v -1.5 2 1.5
v 1.5 2 1.5
v 1.5 1 1.5
v 1.5 3 -1.5
v 1.5 4 -1.5
v -1.5 4 -1.5
v -1.5 3 -1.5
v -1.5 3 -1.5
v -1.5 4 -1.5
v -1.5 4 1.5
v -1.5 3 1.5
v 1.5 3 1.5
v 1.5 4 1.5
v 1.5 4 -1.5
v 1.5 3 -1.5
v -1.5 3 1.5
v -1.5 4 1.5
v 1.5 4 1.5
v 1.5 3 1.5
v -1.5 5 -1.5
v -1.5 6 -1.5
v -1.5 6 1.5
v -1.5 5 1.5
v 1.5 5 -1.5
v 1.5 6 -1.5
v -1.5 6 -1.5
v -1.5 5 -1.5
v 1.5 5 1.5
v 1.5 6 1.5
v 1.5 6 -1.5
v 1.5 5 -1.5
v -1.5 5 1.5
v -1.5 6 1.5
v 1.5 6 1.5
v 1.5 5 1.5
v 1.5 8 1.5
v -1.5 8 1.5
v -1.5 8 -1.5
v 1.5 8 -1.5
v -1.5 7 -1.5
v -1.5 8 -1.5
v -1.5 8 1.5
v -1.5 7 1.5
v 1.5 7 -1.5
v 1.5 8 -1.5
v -1.5 8 -1.5
v -1.5 7 -1.5
v 1.5 7 1.5
v 1.5 8 1.5
v 1.5 8 -1.5
v 1.5 7 -1.5
v -1.5 7 1.5
v -1.5 8 1.5
v 1.5 8 1.5
v 1.5 7 1.5
v -1.5 0 0.5
v -0.5 0 0.5
v -0.5 0 -0.5
v -1.5 0 -0.5
v -0.5 0 1.5
v 0.5 0 1.5
v 0.5 0 0.5
v -0.5 0 0.5
v 0.5 0 0.5
v 1.5 0 0.5
v 1.5 0 -0.5
v 0.5 0 -0.5
v -0.5 0 -0.5
v 0.5 0 -0.5
v 0.5 0 -1.5
v -0.5 0 -1.5
v -1.5 0 -0.5
v -0.5 0 -0.5
v -0.5 0 -1.5
v -1.5 0 -1.5
v -1.5 0 1.5
v -0.5 0 1.5
v -0.5 0 0.5
v -1.5 0 0.5
v 0.5 0 1.5
v 1.5 0 1.5
v 1.5 0 0.5
v 0.5 0 0.5
v 0.5 0 -0.5
v 1.5 0 -0.5
v 1.5 0 -1.5
v 0.5 0 -1.5
v -0.5 0 0.5
v 0.5 0 0.5
v 0.5 0 -0.5
v -0.5 0 -0.5
v -1.5 6 1.5
v -1.5 7 1.5
v 1.5 7 1.5
v 1.5 6 1.5
v 1.5 6 1.5
v 1.5 7 1.5
v 1.5 7 -1.5
v 1.5 6 -1.5
v -1.5 6 -1.5
v -1.5 7 -1.5
v -1.5 7 1.5
v -1.5 6 1.5
v 1.5 6 -1.5
v 1.5 7 -1.5
v -1.5 7 -1.5
v -1.5 6 -1.5
v -1.5 4 1.5
v -1.5 5 1.5
v 1.5 5 1.5
v 1.5 4 1.5
v 1.5 4 1.5
v 1.5 5 1.5
v 1.5 5 -1.5
v 1.5 4 -1.5
v -1.5 4 -1.5
v -1.5 5 -1.5
v -1.5 5 1.5
v -1.5 4 1.5
v 1.5 4 -1.5
v 1.5 5 -1.5
v -1.5 5 -1.5
v -1.5 4 -1.5
v -1.5 2 1.5
v -1.5 3 1.5
v 1.5 3 1.5
v 1.5 2 1.5
v 1.5 2 1.5
v 1.5 3 1.5
v 1.5 3 -1.5
v 1.5 2 -1.5
v -1.5 2 -1.5
v -1.5 3 -1.5
v -1.5 3 1.5
v -1.5 2 1.5
v 1.5 2 -1.5
v 1.5 3 -1.5
v -1.5 3 -1.5
v -1.5 2 -1.5
v -1.5 0 1.5
v -1.5 1 1.5
v 1.5 1 1.5
v 1.5 0 1.5
v 1.5 0 1.5
v 1.5 1 1.5
v 1.5 1 -1.5
v 1.5 0 -1.5
v -1.5 0 -1.5
v -1.5 1 -1.5
v -1.5 1 1.5
v -1.5 0 1.5
v 1.5 0 -1.5
v 1.5 1 -1.5
v -1.5 1 -1.5
v -1.5 0 -1.5
vt 0.7058823529411765 0.41666666666666663
vt 0.8823529411764706 0.5
vt 0.7058823529411765 0.5
vt 0.7058823529411765 0.41666666666666663
vt 0.8823529411764706 0.41666666666666663
vt 0.8823529411764706 0.5
vt 0.17647058823529413 0.41666666666666663
vt 0.35294117647058826 0.5
vt 0.17647058823529413 0.5
vt 0.17647058823529413 0.41666666666666663
vt 0.35294117647058826 0.41666666666666663
vt 0.35294117647058826 0.5
vt 0.5294117647058824 0.41666666666666663
vt 0.7058823529411765 0.5
vt 0.5294117647058824 0.5
vt 0.5294117647058824 0.41666666666666663
vt 0.7058823529411765 0.41666666666666663
vt 0.7058823529411765 0.5
vt 0.35294117647058826 0.41666666666666663
vt 0.5294117647058824 0.5
vt 0.35294117647058826 0.5
vt 0.35294117647058826 0.41666666666666663
vt 0.5294117647058824 0.41666666666666663
vt 0.5294117647058824 0.5
vt 0.7058823529411765 0.5833333333333333
vt 0.8823529411764706 0.6666666666666667
vt 0.7058823529411765 0.6666666666666667
vt 0.7058823529411765 0.5833333333333333
vt 0.8823529411764706 0.5833333333333333
vt 0.8823529411764706 0.6666666666666667
vt 0.17647058823529413 0.5833333333333333
vt 0.35294117647058826 0.6666666666666667
vt 0.17647058823529413 0.6666666666666667
vt 0.17647058823529413 0.5833333333333333
vt 0.35294117647058826 0.5833333333333333
vt 0.35294117647058826 0.6666666666666667
vt 0.5294117647058824 0.5833333333333333
vt 0.7058823529411765 0.6666666666666667
vt 0.5294117647058824 0.6666666666666667
vt 0.5294117647058824 0.5833333333333333
vt 0.7058823529411765 0.5833333333333333
vt 0.7058823529411765 0.6666666666666667
vt 0.35294117647058826 0.5833333333333333
vt 0.5294117647058824 0.6666666666666667
vt 0.35294117647058826 0.6666666666666667
vt 0.35294117647058826 0.5833333333333333
vt 0.5294117647058824 0.5833333333333333
vt 0.5294117647058824 0.6666666666666667
vt 0.17647058823529413 0.75
vt 0.35294117647058826 0.8333333333333334
vt 0.17647058823529413 0.8333333333333334
vt 0.17647058823529413 0.75
vt 0.35294117647058826 0.75
vt 0.35294117647058826 0.8333333333333334
vt 0.7058823529411765 0.75
vt 0.8823529411764706 0.8333333333333334
vt 0.7058823529411765 0.8333333333333334
vt 0.7058823529411765 0.75
vt 0.8823529411764706 0.75
vt 0.8823529411764706 0.8333333333333334
vt 0.5294117647058824 0.75
vt 0.7058823529411765 0.8333333333333334
vt 0.5294117647058824 0.8333333333333334
vt 0.5294117647058824 0.75
vt 0.7058823529411765 0.75
vt 0.7058823529411765 0.8333333333333334
vt 0.35294117647058826 0.75
vt 0.5294117647058824 0.8333333333333334
vt 0.35294117647058826 0.8333333333333334
vt 0.35294117647058826 0.75
vt 0.5294117647058824 0.75
vt 0.5294117647058824 0.8333333333333334
vt 0 0.75
vt 0.17647058823529413 1
vt 0 1
vt 0 0.75
vt 0.17647058823529413 0.75
vt 0.17647058823529413 1
vt 0.17647058823529413 0.9166666666666666
vt 0.35294117647058826 1
vt 0.17647058823529413 1
vt 0.17647058823529413 0.9166666666666666
vt 0.35294117647058826 0.9166666666666666
vt 0.35294117647058826 1
vt 0.7058823529411765 0.9166666666666666
vt 0.8823529411764706 1
vt 0.7058823529411765 1
vt 0.7058823529411765 0.9166666666666666
vt 0.8823529411764706 0.9166666666666666
vt 0.8823529411764706 1
vt 0.5294117647058824 0.9166666666666666
vt 0.7058823529411765 1
vt 0.5294117647058824 1
vt 0.5294117647058824 0.9166666666666666
vt 0.7058823529411765 0.9166666666666666
vt 0.7058823529411765 1
vt 0.35294117647058826 0.9166666666666666
vt 0.5294117647058824 1
vt 0.35294117647058826 1
vt 0.35294117647058826 0.9166666666666666
vt 0.5294117647058824 0.9166666666666666
vt 0.5294117647058824 1
vt 0.058823529411764705 0.25
vt 0.11764705882352941 0.33333333333333337
vt 0.058823529411764705 0.33333333333333337
vt 0.058823529411764705 0.25
vt 0.11764705882352941 0.25
vt 0.11764705882352941 0.33333333333333337
vt 0.058823529411764705 0.25
vt 0.11764705882352941 0.33333333333333337
vt 0.058823529411764705 0.33333333333333337
vt 0.058823529411764705 0.25
vt 0.11764705882352941 0.25
vt 0.11764705882352941 0.33333333333333337
vt 0.058823529411764705 0.25
vt 0.11764705882352941 0.33333333333333337
vt 0.058823529411764705 0.33333333333333337
vt 0.058823529411764705 0.25
vt 0.11764705882352941 0.25
vt 0.11764705882352941 0.33333333333333337
vt 0.058823529411764705 0.25
vt 0.11764705882352941 0.33333333333333337
vt 0.058823529411764705 0.33333333333333337
vt 0.058823529411764705 0.25
vt 0.11764705882352941 0.25
vt 0.11764705882352941 0.33333333333333337
vt 0 0.25
vt 0.058823529411764705 0.33333333333333337
vt 0 0.33333333333333337
vt 0 0.25
vt 0.058823529411764705 0.25
vt 0.058823529411764705 0.33333333333333337
vt 0 0.25
vt 0.058823529411764705 0.33333333333333337
vt 0 0.33333333333333337
vt 0 0.25
vt 0.058823529411764705 0.25
vt 0.058823529411764705 0.33333333333333337
vt 0 0.25
vt 0.058823529411764705 0.33333333333333337
vt 0 0.33333333333333337
vt 0 0.25
vt 0.058823529411764705 0.25
vt 0.058823529411764705 0.33333333333333337
vt 0 0.25
vt 0.058823529411764705 0.33333333333333337
vt 0 0.33333333333333337
vt 0 0.25
vt 0.058823529411764705 0.25
vt 0.058823529411764705 0.33333333333333337
vt 0 0.25
vt 0.058823529411764705 0.33333333333333337
vt 0 0.33333333333333337
vt 0 0.25
vt 0.058823529411764705 0.25
vt 0.058823529411764705 0.33333333333333337
vt 0.35294117647058826 0.8333333333333334
vt 0.5294117647058824 0.9166666666666666
vt 0.35294117647058826 0.9166666666666666
vt 0.35294117647058826 0.8333333333333334
vt 0.5294117647058824 0.8333333333333334
vt 0.5294117647058824 0.9166666666666666
vt 0.5294117647058824 0.8333333333333334
vt 0.7058823529411765 0.9166666666666666
vt 0.5294117647058824 0.9166666666666666
vt 0.5294117647058824 0.8333333333333334
vt 0.7058823529411765 0.8333333333333334
vt 0.7058823529411765 0.9166666666666666
vt 0.17647058823529413 0.8333333333333334
vt 0.35294117647058826 0.9166666666666666
vt 0.17647058823529413 0.9166666666666666
vt 0.17647058823529413 0.8333333333333334
vt 0.35294117647058826 0.8333333333333334
vt 0.35294117647058826 0.9166666666666666
vt 0.7058823529411765 0.8333333333333334
vt 0.8823529411764706 0.9166666666666666
vt 0.7058823529411765 0.9166666666666666
vt 0.7058823529411765 0.8333333333333334
vt 0.8823529411764706 0.8333333333333334
vt 0.8823529411764706 0.9166666666666666
vt 0.35294117647058826 0.6666666666666667
vt 0.5294117647058824 0.75
vt 0.35294117647058826 0.75
vt 0.35294117647058826 0.6666666666666667
vt 0.5294117647058824 0.6666666666666667
vt 0.5294117647058824 0.75
vt 0.5294117647058824 0.6666666666666667
vt 0.7058823529411765 0.75
vt 0.5294117647058824 0.75
vt 0.5294117647058824 0.6666666666666667
vt 0.7058823529411765 0.6666666666666667
vt 0.7058823529411765 0.75
vt 0.17647058823529413 0.6666666666666667
vt 0.35294117647058826 0.75
vt 0.17647058823529413 0.75
vt 0.17647058823529413 0.6666666666666667
vt 0.35294117647058826 0.6666666666666667
vt 0.35294117647058826 0.75
vt 0.7058823529411765 0.6666666666666667
vt 0.8823529411764706 0.75
vt 0.7058823529411765 0.75
vt 0.7058823529411765 0.6666666666666667
vt 0.8823529411764706 0.6666666666666667
vt 0.8823529411764706 0.75
vt 0.35294117647058826 0.5
vt 0.5294117647058824 0.5833333333333333
vt 0.35294117647058826 0.5833333333333333
vt 0.35294117647058826 0.5
vt 0.5294117647058824 0.5
vt 0.5294117647058824 0.5833333333333333
vt 0.5294117647058824 0.5
vt 0.7058823529411765 0.5833333333333333
vt 0.5294117647058824 0.5833333333333333
vt 0.5294117647058824 0.5
vt 0.7058823529411765 0.5
vt 0.7058823529411765 0.5833333333333333
vt 0.17647058823529413 0.5
vt 0.35294117647058826 0.5833333333333333
vt 0.17647058823529413 0.5833333333333333
vt 0.17647058823529413 0.5
vt 0.35294117647058826 0.5
vt 0.35294117647058826 0.5833333333333333
vt 0.7058823529411765 0.5
vt 0.8823529411764706 0.5833333333333333
vt 0.7058823529411765 0.5833333333333333
vt 0.7058823529411765 0.5
vt 0.8823529411764706 0.5
vt 0.8823529411764706 0.5833333333333333
vt 0.35294117647058826 0.33333333333333337
vt 0.5294117647058824 0.41666666666666663
vt 0.35294117647058826 0.41666666666666663
vt 0.35294117647058826 0.33333333333333337
vt 0.5294117647058824 0.33333333333333337
vt 0.5294117647058824 0.41666666666666663
vt 0.5294117647058824 0.33333333333333337
vt 0.7058823529411765 0.41666666666666663
vt 0.5294117647058824 0.41666666666666663
vt 0.5294117647058824 0.33333333333333337
vt 0.7058823529411765 0.33333333333333337
vt 0.7058823529411765 0.41666666666666663
vt 0.17647058823529413 0.33333333333333337
vt 0.35294117647058826 0.41666666666666663
vt 0.17647058823529413 0.41666666666666663
vt 0.17647058823529413 0.33333333333333337
vt 0.35294117647058826 0.33333333333333337
vt 0.35294117647058826 0.41666666666666663
vt 0.7058823529411765 0.33333333333333337
vt 0.8823529411764706 0.41666666666666663
vt 0.7058823529411765 0.41666666666666663
vt 0.7058823529411765 0.33333333333333337
vt 0.8823529411764706 0.33333333333333337
vt 0.8823529411764706 0.41666666666666663
vn 0 0 -1
vn 0 0 -1
vn 0 0 -1
vn 0 0 -1
vn 0 0 -1
vn 0 0 -1
vn -1 0 1.4802973661668753e-16
vn -1 0 1.4802973661668753e-16
vn -1 0 1.4802973661668753e-16
vn -1 0 1.4802973661668753e-16
vn -1 0 1.4802973661668753e-16
vn -1 0 1.4802973661668753e-16
vn 1 0 1.4802973661668753e-16
vn 1 0 1.4802973661668753e-16
vn 1 0 1.4802973661668753e-16
vn 1 0 1.4802973661668753e-16
vn 1 0 1.4802973661668753e-16
vn 1 0 1.4802973661668753e-16
vn 0 0 1
vn 0 0 1
vn 0 0 1
vn 0 0 1
vn 0 0 1
vn 0 0 1
vn 0 0 -1
vn 0 0 -1
vn 0 0 -1
vn 0 0 -1
vn 0 0 -1
vn 0 0 -1
vn -1 0 1.4802973661668753e-16
vn -1 0 1.4802973661668753e-16
vn -1 0 1.4802973661668753e-16
vn -1 0 1.4802973661668753e-16
vn -1 0 1.4802973661668753e-16
vn -1 0 1.4802973661668753e-16
vn 1 0 1.4802973661668753e-16
vn 1 0 1.4802973661668753e-16
vn 1 0 1.4802973661668753e-16
vn 1 0 1.4802973661668753e-16
vn 1 0 1.4802973661668753e-16
vn 1 0 1.4802973661668753e-16
vn 0 0 1
vn 0 0 1
vn 0 0 1
vn 0 0 1
vn 0 0 1
vn 0 0 1
vn -1 0 1.4802973661668753e-16
vn -1 0 1.4802973661668753e-16
vn -1 0 1.4802973661668753e-16
vn -1 0 1.4802973661668753e-16
vn -1 0 1.4802973661668753e-16
vn -1 0 1.4802973661668753e-16
vn 0 0 -1
vn 0 0 -1
vn 0 0 -1
vn 0 0 -1
vn 0 0 -1
vn 0 0 -1
vn 1 0 1.4802973661668753e-16
vn 1 0 1.4802973661668753e-16
vn 1 0 1.4802973661668753e-16
vn 1 0 1.4802973661668753e-16
vn 1 0 1.4802973661668753e-16
vn 1 0 1.4802973661668753e-16
vn 0 0 1
vn 0 0 1
vn 0 0 1
vn 0 0 1
vn 0 0 1
vn 0 0 1
vn 0.00009998999980817563 0.9999999950010001 -4.998999817564645e-13
vn 0.00009998999980817563 0.9999999950010001 -4.998999817564645e-13
vn 0.00009998999980817563 0.9999999950010001 -4.998999817564645e-13
vn 0.00009998999980817563 0.9999999950010001 -4.998999817564645e-13
vn 0.00009998999980817563 0.9999999950010001 -4.998999817564645e-13
vn 0.00009998999980817563 0.9999999950010001 -4.998999817564645e-13
vn -1 0 1.4802973661668753e-16
vn -1 0 1.4802973661668753e-16
vn -1 0 1.4802973661668753e-16
vn -1 0 1.4802973661668753e-16
vn -1 0 1.4802973661668753e-16
vn -1 0 1.4802973661668753e-16
vn 0 0 -1
vn 0 0 -1
vn 0 0 -1
vn 0 0 -1
vn 0 0 -1
vn 0 0 -1
vn 1 0 1.4802973661668753e-16
vn 1 0 1.4802973661668753e-16
vn 1 0 1.4802973661668753e-16
vn 1 0 1.4802973661668753e-16
vn 1 0 1.4802973661668753e-16
vn 1 0 1.4802973661668753e-16
vn 0 0 1
vn 0 0 1
vn 0 0 1
vn 0 0 1
vn 0 0 1
vn 0 0 1
vn 0.00009998999980817563 -0.9999999950010001 -4.998999521534778e-13
vn 0.00009998999980817563 -0.9999999950010001 -4.998999521534778e-13
vn 0.00009998999980817563 -0.9999999950010001 -4.998999521534778e-13
vn 0.00009998999980817563 -0.9999999950010001 -4.998999521534778e-13
vn 0.00009998999980817563 -0.9999999950010001 -4.998999521534778e-13
vn 0.00009998999980817563 -0.9999999950010001 -4.998999521534778e-13
vn 0.00009998999980817563 -0.9999999950010001 -4.998999521534778e-13
vn 0.00009998999980817563 -0.9999999950010001 -4.998999521534778e-13
vn 0.00009998999980817563 -0.9999999950010001 -4.998999521534778e-13
vn 0.00009998999980817563 -0.9999999950010001 -4.998999521534778e-13
vn 0.00009998999980817563 -0.9999999950010001 -4.998999521534778e-13
vn 0.00009998999980817563 -0.9999999950010001 -4.998999521534778e-13
vn 0.00009998999980817563 -0.9999999950010001 -4.998999521534778e-13
vn 0.00009998999980817563 -0.9999999950010001 -4.998999521534778e-13
vn 0.00009998999980817563 -0.9999999950010001 -4.998999521534778e-13
vn 0.00009998999980817563 -0.9999999950010001 -4.998999521534778e-13
vn 0.00009998999980817563 -0.9999999950010001 -4.998999521534778e-13
vn 0.00009998999980817563 -0.9999999950010001 -4.998999521534778e-13
vn 0.00009998999980817563 -0.9999999950010001 -4.998999521534778e-13
vn 0.00009998999980817563 -0.9999999950010001 -4.998999521534778e-13
vn 0.00009998999980817563 -0.9999999950010001 -4.998999521534778e-13
vn 0.00009998999980817563 -0.9999999950010001 -4.998999521534778e-13
vn 0.00009998999980817563 -0.9999999950010001 -4.998999521534778e-13
vn 0.00009998999980817563 -0.9999999950010001 -4.998999521534778e-13
vn 0.00009998999980817563 -0.9999999950010001 -4.998999521534778e-13
vn 0.00009998999980817563 -0.9999999950010001 -4.998999521534778e-13
vn 0.00009998999980817563 -0.9999999950010001 -4.998999521534778e-13
vn 0.00009998999980817563 -0.9999999950010001 -4.998999521534778e-13
vn 0.00009998999980817563 -0.9999999950010001 -4.998999521534778e-13
vn 0.00009998999980817563 -0.9999999950010001 -4.998999521534778e-13
vn 0.00009998999980817563 -0.9999999950010001 -4.998999521534778e-13
vn 0.00009998999980817563 -0.9999999950010001 -4.998999521534778e-13
vn 0.00009998999980817563 -0.9999999950010001 -4.998999521534778e-13
vn 0.00009998999980817563 -0.9999999950010001 -4.998999521534778e-13
vn 0.00009998999980817563 -0.9999999950010001 -4.998999521534778e-13
vn 0.00009998999980817563 -0.9999999950010001 -4.998999521534778e-13
vn 0.00009998999980817563 -0.9999999950010001 -4.998999521534778e-13
vn 0.00009998999980817563 -0.9999999950010001 -4.998999521534778e-13
vn 0.00009998999980817563 -0.9999999950010001 -4.998999521534778e-13
vn 0.00009998999980817563 -0.9999999950010001 -4.998999521534778e-13
vn 0.00009998999980817563 -0.9999999950010001 -4.998999521534778e-13
vn 0.00009998999980817563 -0.9999999950010001 -4.998999521534778e-13
vn 0.00009998999980817563 -0.9999999950010001 -4.998999521534778e-13
vn 0.00009998999980817563 -0.9999999950010001 -4.998999521534778e-13
vn 0.00009998999980817563 -0.9999999950010001 -4.998999521534778e-13
vn 0.00009998999980817563 -0.9999999950010001 -4.998999521534778e-13
vn 0.00009998999980817563 -0.9999999950010001 -4.998999521534778e-13
vn 0.00009998999980817563 -0.9999999950010001 -4.998999521534778e-13
vn 0.00009998999980817563 -0.9999999950010001 -4.998999521534778e-13
vn 0.00009998999980817563 -0.9999999950010001 -4.998999521534778e-13
vn 0.00009998999980817563 -0.9999999950010001 -4.998999521534778e-13
vn 0.00009998999980817563 -0.9999999950010001 -4.998999521534778e-13
vn 0.00009998999980817563 -0.9999999950010001 -4.998999521534778e-13
vn 0.00009998999980817563 -0.9999999950010001 -4.998999521534778e-13
vn 0 0 1
vn 0 0 1
vn 0 0 1
vn 0 0 1
vn 0 0 1
vn 0 0 1
vn 1 0 1.4802973661668753e-16
vn 1 0 1.4802973661668753e-16
vn 1 0 1.4802973661668753e-16
vn 1 0 1.4802973661668753e-16
vn 1 0 1.4802973661668753e-16
vn 1 0 1.4802973661668753e-16
vn -1 0 1.4802973661668753e-16
vn -1 0 1.4802973661668753e-16
vn -1 0 1.4802973661668753e-16
vn -1 0 1.4802973661668753e-16
vn -1 0 1.4802973661668753e-16
vn -1 0 1.4802973661668753e-16
vn 0 0 -1
vn 0 0 -1
vn 0 0 -1
vn 0 0 -1
vn 0 0 -1
vn 0 0 -1
vn 0 0 1
vn 0 0 1
vn 0 0 1
vn 0 0 1
vn 0 0 1
vn 0 0 1
vn 1 0 1.4802973661668753e-16
vn 1 0 1.4802973661668753e-16
vn 1 0 1.4802973661668753e-16
vn 1 0 1.4802973661668753e-16
vn 1 0 1.4802973661668753e-16
vn 1 0 1.4802973661668753e-16
vn -1 0 1.4802973661668753e-16
vn -1 0 1.4802973661668753e-16
vn -1 0 1.4802973661668753e-16
vn -1 0 1.4802973661668753e-16
vn -1 0 1.4802973661668753e-16
vn -1 0 1.4802973661668753e-16
vn 0 0 -1
vn 0 0 -1
vn 0 0 -1
vn 0 0 -1
vn 0 0 -1
vn 0 0 -1
vn 0 0 1
vn 0 0 1
vn 0 0 1
vn 0 0 1
vn 0 0 1
vn 0 0 1
vn 1 0 1.4802973661668753e-16
vn 1 0 1.4802973661668753e-16
vn 1 0 1.4802973661668753e-16
vn 1 0 1.4802973661668753e-16
vn 1 0 1.4802973661668753e-16
vn 1 0 1.4802973661668753e-16
vn -1 0 1.4802973661668753e-16
vn -1 0 1.4802973661668753e-16
vn -1 0 1.4802973661668753e-16
vn -1 0 1.4802973661668753e-16
vn -1 0 1.4802973661668753e-16
vn -1 0 1.4802973661668753e-16
vn 0 0 -1
vn 0 0 -1
vn 0 0 -1
vn 0 0 -1
vn 0 0 -1
vn 0 0 -1
vn 0 0 1
vn 0 0 1
vn 0 0 1
vn 0 0 1
vn 0 0 1
vn 0 0 1
vn 1 0 1.4802973661668753e-16
vn 1 0 1.4802973661668753e-16
vn 1 0 1.4802973661668753e-16
vn 1 0 1.4802973661668753e-16
vn 1 0 1.4802973661668753e-16
vn 1 0 1.4802973661668753e-16
vn -1 0 1.4802973661668753e-16
vn -1 0 1.4802973661668753e-16
vn -1 0 1.4802973661668753e-16
vn -1 0 1.4802973661668753e-16
vn -1 0 1.4802973661668753e-16
vn -1 0 1.4802973661668753e-16
vn 0 0 -1
vn 0 0 -1
vn 0 0 -1
vn 0 0 -1
vn 0 0 -1
vn 0 0 -1
g Scene
f 1/1/1 3/2/2 2/3/3
f 1/4/4 4/5/5 3/6/6
f 5/7/7 7/8/8 6/9/9
f 5/10/10 8/11/11 7/12/12
f 9/13/13 11/14/14 10/15/15
f 9/16/16 12/17/17 11/18/18
f 13/19/19 15/20/20 14/21/21
f 13/22/22 16/23/23 15/24/24
f 17/25/25 19/26/26 18/27/27
f 17/28/28 20/29/29 19/30/30
f 21/31/31 23/32/32 22/33/33
f 21/34/34 24/35/35 23/36/36
f 25/37/37 27/38/38 26/39/39
f 25/40/40 28/41/41 27/42/42
f 29/43/43 31/44/44 30/45/45
f 29/46/46 32/47/47 31/48/48
f 33/49/49 35/50/50 34/51/51
f 33/52/52 36/53/53 35/54/54
f 37/55/55 39/56/56 38/57/57
f 37/58/58 40/59/59 39/60/60
f 41/61/61 43/62/62 42/63/63
f 41/64/64 44/65/65 43/66/66
f 45/67/67 47/68/68 46/69/69
f 45/70/70 48/71/71 47/72/72
f 49/73/73 51/74/74 50/75/75
f 49/76/76 52/77/77 51/78/78
f 53/79/79 55/80/80 54/81/81
f 53/82/82 56/83/83 55/84/84
f 57/85/85 59/86/86 58/87/87
f 57/88/88 60/89/89 59/90/90
f 61/91/91 63/92/92 62/93/93
f 61/94/94 64/95/95 63/96/96
f 65/97/97 67/98/98 66/99/99
f 65/100/100 68/101/101 67/102/102
f 69/103/103 71/104/104 70/105/105
f 69/106/106 72/107/107 71/108/108
f 73/109/109 75/110/110 74/111/111
f 73/112/112 76/113/113 75/114/114
f 77/115/115 79/116/116 78/117/117
f 77/118/118 80/119/119 79/120/120
f 81/121/121 83/122/122 82/123/123
f 81/124/124 84/125/125 83/126/126
f 85/127/127 87/128/128 86/129/129
f 85/130/130 88/131/131 87/132/132
f 89/133/133 91/134/134 90/135/135
f 89/136/136 92/137/137 91/138/138
f 93/139/139 95/140/140 94/141/141
f 93/142/142 96/143/143 95/144/144
f 97/145/145 99/146/146 98/147/147
f 97/148/148 100/149/149 99/150/150
f 101/151/151 103/152/152 102/153/153
f 101/154/154 104/155/155 103/156/156
f 105/157/157 107/158/158 106/159/159
f 105/160/160 108/161/161 107/162/162
f 109/163/163 111/164/164 110/165/165
f 109/166/166 112/167/167 111/168/168
f 113/169/169 115/170/170 114/171/171
f 113/172/172 116/173/173 115/174/174
f 117/175/175 119/176/176 118/177/177
f 117/178/178 120/179/179 119/180/180
f 121/181/181 123/182/182 122/183/183
f 121/184/184 124/185/185 123/186/186
f 125/187/187 127/188/188 126/189/189
f 125/190/190 128/191/191 127/192/192
f 129/193/193 131/194/194 130/195/195
f 129/196/196 132/197/197 131/198/198
f 133/199/199 135/200/200 134/201/201
f 133/202/202 136/203/203 135/204/204
f 137/205/205 139/206/206 138/207/207
f 137/208/208 140/209/209 139/210/210
f 141/211/211 143/212/212 142/213/213
f 141/214/214 144/215/215 143/216/216
f 145/217/217 147/218/218 146/219/219
f 145/220/220 148/221/221 147/222/222
f 149/223/223 151/224/224 150/225/225
f 149/226/226 152/227/227 151/228/228
f 153/229/229 155/230/230 154/231/231
f 153/232/232 156/233/233 155/234/234
f 157/235/235 159/236/236 158/237/237
f 157/238/238 160/239/239 159/240/240
f 161/241/241 163/242/242 162/243/243
f 161/244/244 164/245/245 163/246/246
f 165/247/247 167/248/248 166/249/249
f 165/250/250 168/251/251 167/252/252
