mtllib material.mtl
o Default
v -2 2 -1
v 0 2 -1
v 0 2 -3
v -2 2 -3
v 0 2 -3
v 0 3 -3
v -2 3 -3
v -2 2 -3
v -2 2 -1
v -2 3 -1
v 0 3 -1
v 0 2 -1
v 0 2 -1
v 0 3 -1
v 0 3 -3
v 0 2 -3
v -2 2 -3
v -2 3 -3
v -2 3 -1
v -2 2 -1
v -1 3 -2
v -2 3 -2
v -2 3 -3
v -1 3 -3
v 0 3 -2
v -1 3 -2
v -1 3 -3
v 0 3 -3
v -1 3 -1
v -2 3 -1
v -2 3 -2
v -1 3 -2
v 0 3 -1
v -1 3 -1
v -1 3 -2
v 0 3 -2
vt 0.9166666666666666 0.5
vt 1 0.5833333333333333
vt 0.9166666666666666 0.5833333333333333
vt 0.9166666666666666 0.5
vt 1 0.5
vt 1 0.5833333333333333
vt 0.16666666666666666 0.9583333333333334
vt 0.25 1
vt 0.16666666666666666 1
vt 0.16666666666666666 0.9583333333333334
vt 0.25 0.9583333333333334
vt 0.25 1
vt 0.16666666666666666 0.9583333333333334
vt 0.25 1
vt 0.16666666666666666 1
vt 0.16666666666666666 0.9583333333333334
vt 0.25 0.9583333333333334
vt 0.25 1
vt 0.25 0.9583333333333334
vt 0.16666666666666666 0.9166666666666666
vt 0.25 0.9166666666666666
vt 0.25 0.9583333333333334
vt 0.16666666666666666 0.9583333333333334
vt 0.16666666666666666 0.9166666666666666
vt 0.16666666666666666 0.9583333333333334
vt 0.25 0.9166666666666666
vt 0.16666666666666666 0.9166666666666666
vt 0.16666666666666666 0.9583333333333334
vt 0.25 0.9583333333333334
vt 0.25 0.9166666666666666
vt 0.7916666666666666 0.5
vt 0.8333333333333334 0.5416666666666667
vt 0.7916666666666666 0.5416666666666667
vt 0.7916666666666666 0.5
vt 0.8333333333333334 0.5
vt 0.8333333333333334 0.5416666666666667
vt 0.875 0.5
vt 0.9166666666666666 0.5416666666666667
vt 0.875 0.5416666666666667
vt 0.875 0.5
vt 0.9166666666666666 0.5
vt 0.9166666666666666 0.5416666666666667
vt 0.875 0.5416666666666667
vt 0.9166666666666666 0.5833333333333333
vt 0.875 0.5833333333333333
vt 0.875 0.5416666666666667
vt 0.9166666666666666 0.5416666666666667
vt 0.9166666666666666 0.5833333333333333
vt 0.7916666666666666 0.5416666666666667
vt 0.8333333333333334 0.5833333333333333
vt 0.7916666666666666 0.5833333333333333
vt 0.7916666666666666 0.5416666666666667
vt 0.8333333333333334 0.5416666666666667
vt 0.8333333333333334 0.5833333333333333
vn 0.00009998999980817563 -0.9999999950010001 -4.999000021085178e-13
vn 0.00009998999980817563 -0.9999999950010001 -4.999000021085178e-13
vn 0.00009998999980817563 -0.9999999950010001 -4.998999965579578e-13
vn 0.00009998999980817563 -0.9999999950010001 -4.999000021085178e-13
vn 0.00009998999980817563 -0.9999999950010001 -4.999000076590779e-13
vn 0.00009998999980817563 -0.9999999950010001 -4.999000021085178e-13
vn 0 0 -1
vn 0 0 -1
vn 0 0 -1
vn 0 0 -1
vn 0 0 -1
vn 0 0 -1
vn 0 0 1
vn 0 0 1
vn 0 0 1
vn 0 0 1
vn 0 0 1
vn 0 0 1
vn 1 0 2.220446049250313e-16
vn 1 0 2.220446049250313e-16
vn 1 0 2.220446049250313e-16
vn 1 0 2.220446049250313e-16
vn 1 0 2.220446049250313e-16
vn 1 0 2.220446049250313e-16
vn -1 0 2.220446049250313e-16
vn -1 0 2.220446049250313e-16
vn -1 0 2.220446049250313e-16
vn -1 0 2.220446049250313e-16
vn -1 0 2.220446049250313e-16
vn -1 0 2.220446049250313e-16
vn 0.00009998999980817564 0.9999999950010001 -4.998999854568378e-13
vn 0.00009998999980817564 0.9999999950010001 -4.998999854568378e-13
vn 0.00009998999980817563 0.9999999950010001 -4.998999743557178e-13
vn 0.00009998999980817564 0.9999999950010001 -4.998999854568378e-13
vn 0.00009998999980817566 0.9999999950010001 -4.998999965579579e-13
vn 0.00009998999980817564 0.9999999950010001 -4.998999854568378e-13
vn 0.00009998999980817563 0.9999999950010001 -4.998999965579578e-13
vn 0.00009998999980817563 0.9999999950010001 -4.998999965579578e-13
vn 0.00009998999980817563 0.9999999950010001 -4.998999965579578e-13
vn 0.00009998999980817563 0.9999999950010001 -4.998999965579578e-13
vn 0.00009998999980817563 0.9999999950010001 -4.998999965579578e-13
vn 0.00009998999980817563 0.9999999950010001 -4.998999965579578e-13
vn 0.00009998999980817564 0.9999999950010001 -4.998999854568378e-13
vn 0.00009998999980817564 0.9999999950010001 -4.998999854568378e-13
vn 0.00009998999980817563 0.9999999950010001 -4.998999743557178e-13
vn 0.00009998999980817564 0.9999999950010001 -4.998999854568378e-13
vn 0.00009998999980817566 0.9999999950010001 -4.998999965579579e-13
vn 0.00009998999980817564 0.9999999950010001 -4.998999854568378e-13
vn 0.00009998999980817563 0.9999999950010001 -4.998999965579578e-13
vn 0.00009998999980817563 0.9999999950010001 -4.998999965579578e-13
vn 0.00009998999980817563 0.9999999950010001 -4.998999965579578e-13
vn 0.00009998999980817563 0.9999999950010001 -4.998999965579578e-13
vn 0.00009998999980817563 0.9999999950010001 -4.998999965579578e-13
vn 0.00009998999980817563 0.9999999950010001 -4.998999965579578e-13
g Scene
f 1/1/1 3/2/2 2/3/3
f 1/4/4 4/5/5 3/6/6
f 5/7/7 7/8/8 6/9/9
f 5/10/10 8/11/11 7/12/12
f 9/13/13 11/14/14 10/15/15
f 9/16/16 12/17/17 11/18/18
f 13/19/19 15/20/20 14/21/21
f 13/22/22 16/23/23 15/24/24
f 17/25/25 19/26/26 18/27/27
f 17/28/28 20/29/29 19/30/30
f 21/31/31 23/32/32 22/33/33
f 21/34/34 24/35/35 23/36/36
f 25/37/37 27/38/38 26/39/39
f 25/40/40 28/41/41 27/42/42
f 29/43/43 31/44/44 30/45/45
f 29/46/46 32/47/47 31/48/48
f 33/49/49 35/50/50 34/51/51
f 33/52/52 36/53/53 35/54/54
