mtllib material.mtl
o Default
v -0.5 2 2.5
v -1 2 2.5
v -2 2.5 0
v -1.5 2 0.5
v 2.5 2 2.5
v 2.5 2 0
v -2 2.5 0
v -1.5 2 -2.5
v -1 2 -2.5
v 2.5 2 0
v 2.5 2 -2.5
v -3 1.5 1
v -2 2 -2.5
v -1.5 2 -2.5
v -2.5 2 2.5
v -3 1.5 1
v -2.5 0 -2.5
v -2 2 -2.5
v -2.5 0 0
v -2.5 2 2.5
v -2.5 0 2.5
v -2.5 0 -1.5
v -1.5 0 -1.5
v -1.5 0 -2.5
v -2.5 0 -0.5
v -1.5 0 -0.5
v -2.5 0 0.5
v -1.5 0 0.5
v -2.5 0 1.5
v -1.5 0 1.5
v -1.5 0 2.5
v 2.5 0 0.5
v 2.5 0 -0.5
v 2.5 0 -2.5
v 2.5 0 2.5
v 2.5 0 2.5
v 2.5 2 2.5
v 2.5 0 -2.5
vt 0.24074074074074073 0.6666666666666666
vt 0.28703703703703703 0.6759259259259259
vt 0.24074074074074073 0.6759259259259259
vt 0.24074074074074073 0.6666666666666666
vt 0.28703703703703703 0.6666666666666666
vt 0.28703703703703703 0.6759259259259259
vt 0.24074074074074073 0.6111111111111112
vt 0.28703703703703703 0.6666666666666666
vt 0.24074074074074073 0.6666666666666666
vt 0.24074074074074073 0.6111111111111112
vt 0.28703703703703703 0.6111111111111112
vt 0.28703703703703703 0.6666666666666666
vt 0.28703703703703703 0.6759259259259259
vt 0.3333333333333333 0.6851851851851852
vt 0.28703703703703703 0.6851851851851852
vt 0.28703703703703703 0.6759259259259259
vt 0.3333333333333333 0.6759259259259259
vt 0.3333333333333333 0.6851851851851852
vt 0.28703703703703703 0.6111111111111112
vt 0.3333333333333333 0.6759259259259259
vt 0.28703703703703703 0.6759259259259259
vt 0.28703703703703703 0.6111111111111112
vt 0.3333333333333333 0.6111111111111112
vt 0.3333333333333333 0.6759259259259259
vt 0.28703703703703703 0.6851851851851852
vt 0.3333333333333333 0.7037037037037037
vt 0.28703703703703703 0.7037037037037037
vt 0.28703703703703703 0.6851851851851852
vt 0.3333333333333333 0.6851851851851852
vt 0.3333333333333333 0.7037037037037037
vt 0.24074074074074073 0.6759259259259259
vt 0.28703703703703703 0.7037037037037037
vt 0.24074074074074073 0.7037037037037037
vt 0.24074074074074073 0.6759259259259259
vt 0.28703703703703703 0.6759259259259259
vt 0.28703703703703703 0.7037037037037037
vt 0.3333333333333333 0.6666666666666667
vt 0.37962962962962965 0.7037037037037037
vt 0.3333333333333333 0.7037037037037037
vt 0.3333333333333333 0.6666666666666667
vt 0.37962962962962965 0.6666666666666666
vt 0.37962962962962965 0.7037037037037037
vt 0.37962962962962965 0.6666666666666666
vt 0.42592592592592593 0.7037037037037037
vt 0.37962962962962965 0.7037037037037037
vt 0.37962962962962965 0.6666666666666666
vt 0.42592592592592593 0.6666666666666667
vt 0.42592592592592593 0.7037037037037037
vt 0.42592592592592593 0.6111111111111112
vt 0.4444444444444444 0.6296296296296297
vt 0.42592592592592593 0.6296296296296297
vt 0.42592592592592593 0.6111111111111112
vt 0.4444444444444444 0.6111111111111112
vt 0.4444444444444444 0.6296296296296297
vt 0.42592592592592593 0.6111111111111112
vt 0.4444444444444444 0.6296296296296297
vt 0.42592592592592593 0.6296296296296297
vt 0.42592592592592593 0.6111111111111112
vt 0.4444444444444444 0.6111111111111112
vt 0.4444444444444444 0.6296296296296297
vt 0.42592592592592593 0.6111111111111112
vt 0.4444444444444444 0.6296296296296297
vt 0.42592592592592593 0.6296296296296297
vt 0.42592592592592593 0.6111111111111112
vt 0.4444444444444444 0.6111111111111112
vt 0.4444444444444444 0.6296296296296297
vt 0.42592592592592593 0.6111111111111112
vt 0.4444444444444444 0.6296296296296297
vt 0.42592592592592593 0.6296296296296297
vt 0.42592592592592593 0.6111111111111112
vt 0.4444444444444444 0.6111111111111112
vt 0.4444444444444444 0.6296296296296297
vt 0.42592592592592593 0.6111111111111112
vt 0.4444444444444444 0.6296296296296297
vt 0.42592592592592593 0.6296296296296297
vt 0.42592592592592593 0.6111111111111112
vt 0.4444444444444444 0.6111111111111112
vt 0.4444444444444444 0.6296296296296297
vt 0.42592592592592593 0.5555555555555556
vt 0.4444444444444444 0.6296296296296297
vt 0.42592592592592593 0.6296296296296297
vt 0.42592592592592593 0.5555555555555556
vt 0.4444444444444444 0.5555555555555556
vt 0.4444444444444444 0.6296296296296297
vt 0.42592592592592593 0.5555555555555556
vt 0.46296296296296297 0.6296296296296297
vt 0.42592592592592593 0.6296296296296297
vt 0.42592592592592593 0.5555555555555556
vt 0.46296296296296297 0.5555555555555556
vt 0.46296296296296297 0.6296296296296297
vt 0.42592592592592593 0.5555555555555556
vt 0.46296296296296297 0.6296296296296297
vt 0.42592592592592593 0.6296296296296297
vt 0.42592592592592593 0.5555555555555556
vt 0.46296296296296297 0.5555555555555556
vt 0.46296296296296297 0.6296296296296297
vt 0.3333333333333333 0.6666666666666667
vt 0.42592592592592593 0.7037037037037037
vt 0.3333333333333333 0.7037037037037037
vt 0.3333333333333333 0.6666666666666667
vt 0.42592592592592593 0.6666666666666667
vt 0.42592592592592593 0.7037037037037037
vt 0.3333333333333333 0.6666666666666667
vt 0.42592592592592593 0.7037037037037037
vt 0.3333333333333333 0.7037037037037037
vt 0.3333333333333333 0.6666666666666667
vt 0.42592592592592593 0.6666666666666667
vt 0.42592592592592593 0.7037037037037037
vt 0.3333333333333333 0.6666666666666667
vt 0.42592592592592593 0.7037037037037037
vt 0.3333333333333333 0.7037037037037037
vt 0.3333333333333333 0.6666666666666667
vt 0.42592592592592593 0.6666666666666667
vt 0.42592592592592593 0.7037037037037037
vn 0.3224167440530809 0.9428760773261526 -0.08385789146083561
vn 0.15742114227003146 0.985641229971857 0.06107331451594383
vn -0.16648209514595647 0.9826395671144897 0.08187303058309857
vn 0.3224167440530809 0.9428760773261526 -0.08385789146083561
vn 0.28468345091877817 0.9555834630634745 -0.0762599363531911
vn 0.15742114227003146 0.985641229971857 0.06107331451594383
vn 0.000056246683782137706 0.9999999945903699 -0.00008749611845674982
vn 0.28468345091877817 0.9555834630634745 -0.0762599363531911
vn 0.3224167440530809 0.9428760773261526 -0.08385789146083561
vn 0.000056246683782137706 0.9999999945903699 -0.00008749611845674982
vn 0.00001249862444897986 0.9999999999218924 -6.248687088720632e-14
vn 0.28468345091877817 0.9555834630634745 -0.0762599363531911
vn 0.28468345091877817 0.9555834630634745 -0.0762599363531911
vn 0.38270268809828717 0.923871550005466 0.00010776290133019274
vn -0.023319246496094088 0.9902143561316992 -0.13759266569675452
vn 0.28468345091877817 0.9555834630634745 -0.0762599363531911
vn 0.00007513902566204625 0.9999999944672561 0.00007361803355966816
vn 0.38270268809828717 0.923871550005466 0.00010776290133019274
vn 0.00006271353883402198 0.9999999966758082 0.0000521094621351856
vn 0.00007513902566204625 0.9999999944672561 0.00007361803355966816
vn 0.28468345091877817 0.9555834630634745 -0.0762599363531911
vn 0.00006271353883402198 0.9999999966758082 0.0000521094621351856
vn 0.8165101808264634 0.40823468886876796 -0.40823469158188447
vn 0.00007513902566204625 0.9999999944672561 0.00007361803355966816
vn -0.023319246496094088 0.9902143561316992 -0.13759266569675452
vn -0.41966098170438837 0.8900851883561404 -0.17785673421021442
vn -0.9998156706196275 0.008105370108260422 0.01740481998850758
vn -0.023319246496094088 0.9902143561316992 -0.13759266569675452
vn 0.00019610228050361128 0.9806145967799768 -0.1959463552249428
vn -0.41966098170438837 0.8900851883561404 -0.17785673421021442
vn -0.16648209514595647 0.9826395671144897 0.08187303058309857
vn -0.25498137007390775 0.9667819081967897 0.01781131378105332
vn 0.00009493583248669899 0.9486737966275086 -0.31625625460935347
vn -0.16648209514595647 0.9826395671144897 0.08187303058309857
vn 0.15742114227003146 0.985641229971857 0.06107331451594383
vn -0.25498137007390775 0.9667819081967897 0.01781131378105332
vn -0.7552383311037673 -0.4314457001537553 -0.49342645961726894
vn -0.9998156706196275 0.008105370108260422 0.01740481998850758
vn -0.38674775697415453 0.09668693924353863 -0.917102943106812
vn -0.7552383311037673 -0.4314457001537553 -0.49342645961726894
vn -0.9435822426280066 -0.29617908092199763 0.1480895115168616
vn -0.9998156706196275 0.008105370108260422 0.01740481998850758
vn -0.9435822426280066 -0.29617908092199763 0.1480895115168616
vn -0.7535303287745515 -0.2285251196818328 0.6164156984465274
vn -0.9998156706196275 0.008105370108260422 0.01740481998850758
vn -0.9435822426280066 -0.29617908092199763 0.1480895115168616
vn -0.33328518983056193 -0.6666703677162577 0.6666870353086793
vn -0.7535303287745515 -0.2285251196818328 0.6164156984465274
vn 0.00008332499967190543 -0.9999999963896111 -0.000016665000525067397
vn 0.00007499249976397062 -0.9999999970492012 -0.00001666500058639783
vn 0.0000999899998081756 -0.9999999950009999 -1.6663331738449254e-13
vn 0.00008332499967190543 -0.9999999963896111 -0.000016665000525067397
vn -0.7552383311037673 -0.4314457001537553 -0.49342645961726894
vn 0.00007499249976397062 -0.9999999970492012 -0.00001666500058639783
vn 0.0000999899998081756 -0.9999999950009999 0
vn 0.0000999899998081756 -0.9999999950009999 -1.6663331738449254e-13
vn 0.0000874912499678598 -0.9999999961726406 -6.24874997893912e-14
vn 0.0000999899998081756 -0.9999999950009999 0
vn 0.00008332499967190543 -0.9999999963896111 -0.000016665000525067397
vn 0.0000999899998081756 -0.9999999950009999 -1.6663331738449254e-13
vn 0.0000999899998081756 -0.9999999950009999 0
vn 0.0000874912499678598 -0.9999999961726406 -6.24874997893912e-14
vn 0.00008749124993661606 -0.9999999961726406 -6.248749416072962e-14
vn 0.0000999899998081756 -0.9999999950009999 0
vn 0.0000999899998081756 -0.9999999950009999 0
vn 0.0000874912499678598 -0.9999999961726406 -6.24874997893912e-14
vn 0.0000999899997942909 -0.9999999948621389 0.000016665000332982913
vn 0.00008749124993661606 -0.9999999961726406 -6.248749416072962e-14
vn 0.00008332499956776167 -0.9999999963896111 0.00001666500033761115
vn 0.0000999899997942909 -0.9999999948621389 0.000016665000332982913
vn 0.0000999899998081756 -0.9999999950009999 0
vn 0.00008749124993661606 -0.9999999961726406 -6.248749416072962e-14
vn -0.33328518983056193 -0.6666703677162577 0.6666870353086793
vn 0.00008332499956776167 -0.9999999963896111 0.00001666500033761115
vn 0.0000666599997090746 -0.9999999977782221 0
vn -0.33328518983056193 -0.6666703677162577 0.6666870353086793
vn 0.0000999899997942909 -0.9999999948621389 0.000016665000332982913
vn 0.00008332499956776167 -0.9999999963896111 0.00001666500033761115
vn 0.00008749124993661606 -0.9999999961726406 -6.248749416072962e-14
vn 0.00007499250008263248 -0.9999999971880624 -1.874624936467679e-13
vn 0.000074992500020145 -0.9999999971880624 -1.2497498831169756e-13
vn 0.00008749124993661606 -0.9999999961726406 -6.248749416072962e-14
vn 0.0000874912499678598 -0.9999999961726406 -6.24874997893912e-14
vn 0.00007499250008263248 -0.9999999971880624 -1.874624936467679e-13
vn 0.0000874912499678598 -0.9999999961726406 -6.24874997893912e-14
vn 0.00007499250011387626 -0.9999999971880627 -1.874624993535311e-13
vn 0.00007499250008263248 -0.9999999971880624 -1.874624936467679e-13
vn 0.0000874912499678598 -0.9999999961726406 -6.24874997893912e-14
vn 0.00007499249976397062 -0.9999999970492012 -0.00001666500058639783
vn 0.00007499250011387626 -0.9999999971880627 -1.874624993535311e-13
vn 0.0000666599997090746 -0.9999999977782221 0
vn 0.000074992500020145 -0.9999999971880624 -1.2497498831169756e-13
vn 0.000074992500020145 -0.9999999971880627 0
vn 0.0000666599997090746 -0.9999999977782221 0
vn 0.00008749124993661606 -0.9999999961726406 -6.248749416072962e-14
vn 0.000074992500020145 -0.9999999971880624 -1.2497498831169756e-13
vn 0.89442719080291 -1.23131703318312e-9 0.4472135958939697
vn 0.8165101808264634 0.40823468886876796 -0.40823469158188447
vn 0.4472135953029521 0 0.8944271910984187
vn 0.89442719080291 -1.23131703318312e-9 0.4472135958939697
vn 0.447213595499958 -1.2313170334543292e-9 -0.8944271909999159
vn 0.8165101808264634 0.40823468886876796 -0.40823469158188447
vn 0.447213595499958 -1.2313170334543292e-9 -0.8944271909999159
vn -0.38674775697415453 0.09668693924353863 -0.917102943106812
vn 0.8165101808264634 0.40823468886876796 -0.40823469158188447
vn 0.447213595499958 -1.2313170334543292e-9 -0.8944271909999159
vn -0.7552383311037673 -0.4314457001537553 -0.49342645961726894
vn -0.38674775697415453 0.09668693924353863 -0.917102943106812
vn -0.33328518983056193 -0.6666703677162577 0.6666870353086793
vn 0.4472135953029521 0 0.8944271910984187
vn -0.7535303287745515 -0.2285251196818328 0.6164156984465274
vn -0.33328518983056193 -0.6666703677162577 0.6666870353086793
vn 0.89442719080291 -1.23131703318312e-9 0.4472135958939697
vn 0.4472135953029521 0 0.8944271910984187
g Scene
f 1/1/1 3/2/2 2/3/3
f 1/4/4 4/5/5 3/6/6
f 5/7/7 4/8/8 1/9/9
f 5/10/10 6/11/11 4/12/12
f 4/13/13 8/14/14 7/15/15
f 4/16/16 9/17/17 8/18/18
f 10/19/19 9/20/20 4/21/21
f 10/22/22 11/23/23 9/24/24
f 7/25/25 13/26/26 12/27/27
f 7/28/28 14/29/29 13/30/30
f 2/31/31 16/32/32 15/33/33
f 2/34/34 3/35/35 16/36/36
f 17/37/37 12/38/38 18/39/39
f 17/40/40 19/41/41 12/42/42
f 19/43/43 20/44/44 12/45/45
f 19/46/46 21/47/47 20/48/48
f 22/49/49 24/50/50 23/51/51
f 22/52/52 17/53/53 24/54/54
f 25/55/55 23/56/56 26/57/57
f 25/58/58 22/59/59 23/60/60
f 27/61/61 26/62/62 28/63/63
f 27/64/64 25/65/65 26/66/66
f 29/67/67 28/68/68 30/69/69
f 29/70/70 27/71/71 28/72/72
f 21/73/73 30/74/74 31/75/75
f 21/76/76 29/77/77 30/78/78
f 28/79/79 33/80/80 32/81/81
f 28/82/82 26/83/83 33/84/84
f 26/85/85 34/86/86 33/87/87
f 26/88/88 24/89/89 34/90/90
f 31/91/91 32/92/92 35/93/93
f 31/94/94 28/95/95 32/96/96
f 36/97/97 11/98/98 37/99/99
f 36/100/100 38/101/101 11/102/102
f 38/103/103 18/104/104 11/105/105
f 38/106/106 17/107/107 18/108/108
f 21/109/109 37/110/110 20/111/111
f 21/112/112 36/113/113 37/114/114
